<svg width="22" height="22" viewBox="0 0 22 22" fill="none" xmlns="http://www.w3.org/2000/svg">
<path d="M11.0978 15.9473L11.1062 15.9479H11.1146C11.6247 15.9479 11.981 15.8943 12.2086 15.7426C12.4758 15.5645 12.5104 15.2967 12.5104 15.0791V13.6354C12.5104 13.5267 12.516 13.453 12.5256 13.4025C12.5313 13.372 12.5374 13.3562 12.5407 13.3491C12.5532 13.3446 12.5912 13.3354 12.6844 13.3354C12.8192 13.3354 13.157 13.3846 14.102 14.2951C14.369 14.5622 14.5809 14.793 14.7589 14.9904C14.793 15.0282 14.8262 15.0651 14.8584 15.101C14.9926 15.2504 15.1114 15.3827 15.2199 15.4917C15.3554 15.628 15.4901 15.7443 15.6427 15.8249C15.8008 15.9085 15.9667 15.9479 16.1562 15.9479H17.7604C18.0206 15.9479 18.2817 15.8841 18.4483 15.6906C18.6235 15.487 18.6317 15.2159 18.5493 14.9484L18.5434 14.9289L18.5343 14.9107C18.1784 14.1936 17.7083 13.5392 17.1423 12.9731C16.951 12.748 16.7181 12.52 16.5187 12.3248L16.5016 12.3081C16.2836 12.0946 16.1283 11.9396 16.0664 11.8467L16.0613 11.8391L16.0557 11.8319C15.9497 11.6956 15.9518 11.6465 15.9529 11.6332C15.9554 11.6016 15.9745 11.5551 16.064 11.4174C16.921 10.2514 17.6508 8.99713 18.2408 7.67585L18.2473 7.66116L18.252 7.64575C18.3107 7.44993 18.3358 7.20705 18.195 7.00832C18.0515 6.80571 17.801 6.73954 17.5312 6.73954H15.9351C15.7332 6.72756 15.5327 6.78097 15.3634 6.89198C15.1936 7.00333 15.0644 7.16658 14.995 7.35729C14.5119 8.51114 13.864 9.58889 13.0718 10.5569C12.7369 10.891 12.6264 10.9546 12.5473 10.9655C12.5335 10.9409 12.5104 10.8804 12.5104 10.7594V7.57392C12.5104 7.35816 12.4835 7.13982 12.3594 6.9761C12.221 6.79335 12.0129 6.73954 11.8021 6.73954H9.28609C9.12032 6.73381 8.9586 6.79207 8.83451 6.90238L9.00061 7.08922L8.83451 6.90238C8.70888 7.01406 8.63173 7.17031 8.61942 7.33795L8.61875 7.34709V7.35625C8.61875 7.52313 8.68293 7.65117 8.7529 7.75362C8.78651 7.80282 8.8245 7.85041 8.85868 7.89299L8.86695 7.90329C8.89969 7.94406 8.93089 7.98291 8.96245 8.02578C9.08843 8.19693 9.2284 8.44226 9.26039 8.92269V11.275C9.26039 11.3979 9.25484 11.487 9.24546 11.5514C9.23966 11.5912 9.23306 11.6166 9.22794 11.6319C9.2236 11.6321 9.21848 11.6323 9.2125 11.6323C9.21312 11.6323 9.21306 11.6323 9.21228 11.6321C9.20756 11.6311 9.17648 11.6248 9.1138 11.5835C9.04562 11.5385 8.96098 11.4659 8.86218 11.3624C8.6651 11.1558 8.43405 10.8498 8.19051 10.4652C7.70433 9.6974 7.18569 8.64399 6.80232 7.5164L6.80245 7.51635L6.79945 7.50842C6.71783 7.29264 6.62355 7.09101 6.46728 6.94912C6.29798 6.79541 6.0894 6.73954 5.84375 6.73954H4.23961C3.97623 6.73954 3.75814 6.80176 3.61139 6.95638C3.46608 7.1095 3.43961 7.30253 3.43961 7.44789V7.47451L3.44522 7.50054C3.87137 9.47881 4.75213 11.3307 6.0177 12.9096C6.56288 13.7791 7.3059 14.5074 8.18622 15.0352C9.07082 15.5656 10.0688 15.8782 11.0978 15.9473ZM12.5354 13.3515C12.5353 13.3515 12.5358 13.3512 12.537 13.3506L12.5354 13.3515ZM7.63125 0.25H14.3802C17.4669 0.25 19.2708 0.623744 20.3248 1.68045C21.3791 2.73736 21.75 4.54437 21.75 7.63125V14.3802C21.75 17.4668 21.3763 19.2708 20.3195 20.3248C19.2626 21.3791 17.4556 21.75 14.3688 21.75H7.61977C4.53314 21.75 2.72923 21.3762 1.67518 20.3195C0.620932 19.2626 0.25 17.4556 0.25 14.3688V7.61977C0.25 4.539 0.623689 2.73489 1.68056 1.67935C2.73755 0.623694 4.54469 0.25 7.63125 0.25Z" stroke="#FEE17A" stroke-width="0.5"/>
</svg>
