<svg width="21" height="22" viewBox="0 0 21 22" fill="none" xmlns="http://www.w3.org/2000/svg">
<path fill-rule="evenodd" clip-rule="evenodd" d="M5.99571 5.65206C5.99571 3.16439 8.01236 1.14774 10.5 1.14774C12.9877 1.14774 15.0043 3.16439 15.0043 5.65206C15.0043 8.13973 12.9877 10.1564 10.5 10.1564C8.01236 10.1564 5.99571 8.13973 5.99571 5.65206ZM10.5 0.497742C7.65338 0.497742 5.34571 2.80541 5.34571 5.65206C5.34571 8.49871 7.65338 10.8064 10.5 10.8064C13.3467 10.8064 15.6543 8.49871 15.6543 5.65206C15.6543 2.80541 13.3467 0.497742 10.5 0.497742ZM10.5 12.3786C5.20383 12.3786 0.966675 16.6585 0.966675 21.9119H1.57935C1.57935 16.9951 5.54397 12.9912 10.5 12.9912C15.4168 12.9912 19.4207 16.9559 19.4207 21.9119H20.0333C20.0333 16.6157 15.7534 12.3786 10.5 12.3786Z" fill="#39261F"/>
</svg>
