<svg width="30" height="30" viewBox="0 0 30 30" fill="none" xmlns="http://www.w3.org/2000/svg">
<path fill-rule="evenodd" clip-rule="evenodd" d="M10.3258 6.58729C10.526 3.90633 12.5752 1.83196 15.0191 1.83196C17.4582 1.83196 19.508 3.95189 19.7118 6.58729H10.3258ZM9.55435 7.41925V9.14226C8.94976 9.3246 8.50545 9.93406 8.50545 10.6578C8.50545 11.5256 9.14414 12.229 9.93201 12.229C10.7199 12.229 11.3586 11.5256 11.3586 10.6578C11.3586 9.93408 10.9143 9.32463 10.3097 9.14227V7.41925H19.7284V9.14227C19.1239 9.32464 18.6796 9.93408 18.6796 10.6578C18.6796 11.5256 19.3183 12.229 20.1061 12.229C20.894 12.229 21.5327 11.5256 21.5327 10.6578C21.5327 9.93405 21.0884 9.32459 20.4838 9.14225V7.41925H22.9427C23.2257 7.41925 23.4796 7.66749 23.5112 7.97154L23.5114 7.97339L25.2416 27.0301C25.2743 27.3911 25.0469 27.6963 24.7407 27.73L24.6065 27.7448L24.5694 27.7857H5.32167C5.00582 27.7857 4.75537 27.5099 4.75537 27.162V27.0669L6.4837 8.03115L6.4839 8.02917C6.5187 7.69393 6.79692 7.41925 7.05231 7.41925H9.55435ZM19.7284 10.0467V10.6578H20.4838V10.0466C20.661 10.1797 20.7773 10.4038 20.7773 10.6578C20.7773 11.0661 20.4768 11.3971 20.1061 11.3971C19.7355 11.3971 19.4349 11.0661 19.4349 10.6578C19.4349 10.4038 19.5513 10.1797 19.7284 10.0467ZM9.26082 10.6578C9.26082 10.4038 9.37716 10.1797 9.55435 10.0466V10.6578H10.3097V10.0466C10.4869 10.1797 10.6032 10.4038 10.6032 10.6578C10.6032 11.0661 10.3027 11.3971 9.93201 11.3971C9.56132 11.3971 9.26082 11.0661 9.26082 10.6578ZM9.56815 6.58729C9.77008 3.44112 12.1628 1 15.0191 1C17.8755 1 20.2646 3.49267 20.4695 6.58729H22.9427C23.6032 6.58729 24.188 7.1467 24.2621 7.88151L24.2626 7.88606L25.9932 26.9473C26.0618 27.7034 25.6059 28.4053 24.9213 28.5416C24.7955 28.6184 24.6764 28.6179 24.6274 28.6177L24.6209 28.6177H5.32167C4.58865 28.6177 4 27.9693 4 27.162V27.0257L5.73295 7.93927C5.80393 7.23571 6.36421 6.58729 7.05231 6.58729H9.56815Z" fill="#141515"/>
</svg>
