<svg width="30" height="30" viewBox="0 0 30 30" fill="none" xmlns="http://www.w3.org/2000/svg">
<path fill-rule="evenodd" clip-rule="evenodd" d="M3.12615 12.1998L3.12588 12.1983C2.34847 8.01008 5.24836 4.35659 9.71432 4.01487C11.8378 3.85378 13.3779 5.02853 14.3767 6.21623C14.8338 6.7597 15.1997 7.33093 15.479 7.8285C16.2874 6.32545 17.287 5.41185 18.279 4.86068C19.4575 4.20596 20.5636 4.10138 21.1216 4.04862C21.1498 4.04595 21.1766 4.04342 21.2019 4.04096C22.8251 3.87372 24.7045 4.3917 26.0811 5.65404C27.4849 6.94143 28.3072 8.94742 27.8923 11.6244L27.8918 11.6276C27.5952 13.4836 26.6641 15.3523 25.4836 17.0861C24.2987 18.8263 22.8333 20.4729 21.4159 21.8893C19.9967 23.3074 18.6142 24.5062 17.587 25.3502C17.073 25.7725 16.647 26.1069 16.3485 26.3364C16.1992 26.4511 16.0817 26.5397 16.001 26.6C15.9607 26.6302 15.9295 26.6532 15.9081 26.669L15.8835 26.6871L15.8768 26.692L15.875 26.6933C15.875 26.6933 15.874 26.694 15.4313 26.1272C15.4313 26.1272 26.0689 18.3798 27.1651 11.5194C27.9315 6.57494 24.12 4.4531 21.2779 4.74712C21.2534 4.7495 21.2279 4.75193 21.2013 4.75446C20.1553 4.85408 17.5444 5.10273 15.8932 8.63062C15.8656 8.6896 15.8382 8.74949 15.8112 8.81032C15.7543 8.93816 15.6987 9.07012 15.6444 9.20632C15.6269 9.25026 15.6095 9.29465 15.5923 9.33948C15.5892 9.34742 15.5862 9.35537 15.5831 9.36333C15.5782 9.37632 15.5732 9.38935 15.5683 9.40242C15.5643 9.41573 15.556 9.42744 15.5446 9.43578C15.5331 9.44412 15.5192 9.44863 15.5048 9.44863C15.4905 9.44863 15.4766 9.44412 15.4651 9.43578C15.4537 9.42744 15.4453 9.41573 15.4414 9.40242C15.4358 9.38994 15.4299 9.37663 15.4236 9.36252C15.4217 9.35822 15.4197 9.35385 15.4178 9.34941C15.4166 9.34682 15.4155 9.34419 15.4143 9.34155C15.3926 9.29291 15.3673 9.23587 15.3381 9.17149C15.2928 9.07159 15.2385 8.95402 15.1748 8.82272C15.147 8.7654 15.1174 8.70546 15.086 8.64323C14.3553 7.19412 12.6527 4.50411 9.7724 4.72261C5.73762 5.03133 3.14926 8.29985 3.84964 12.0731C5.23517 19.4481 15.4313 26.1272 15.4313 26.1272C15.0184 26.7147 15.0181 26.7145 15.0181 26.7145L15.0155 26.7128L15.0089 26.7084L14.9848 26.6925C14.9639 26.6786 14.9337 26.6584 14.8946 26.632C14.8165 26.5791 14.703 26.5015 14.5589 26.4006C14.2706 26.1989 13.8593 25.9036 13.3623 25.5267C12.3691 24.7734 11.0293 23.6904 9.64376 22.3713C6.90126 19.7603 3.86174 16.1152 3.12615 12.1998ZM15.4313 26.1272L15.874 26.694L15.4539 27L15.0181 26.7145L15.4313 26.1272Z" fill="#141515"/>
</svg>
