<svg width="26" height="26" viewBox="0 0 26 26" fill="none" xmlns="http://www.w3.org/2000/svg">
<path d="M4.40428 18.7606L4.09553 21.4866C4.08836 21.5475 4.09509 21.6093 4.11522 21.6673C4.13534 21.7252 4.16834 21.7779 4.21174 21.8213C4.25513 21.8647 4.30779 21.8977 4.36577 21.9178C4.42374 21.9379 4.48552 21.9447 4.54647 21.9375L7.25616 21.6247C7.34705 21.6136 7.43151 21.572 7.49585 21.5069L21.6699 7.28813C21.7455 7.21267 21.8054 7.12306 21.8463 7.02442C21.8872 6.92579 21.9082 6.82006 21.9082 6.71328C21.9082 6.60651 21.8872 6.50078 21.8463 6.40215C21.8054 6.30351 21.7455 6.2139 21.6699 6.13844L19.8458 4.30625C19.7703 4.2301 19.6804 4.16965 19.5814 4.1284C19.4824 4.08716 19.3762 4.06592 19.269 4.06592C19.1617 4.06592 19.0555 4.08716 18.9565 4.1284C18.8575 4.16965 18.7676 4.2301 18.6921 4.30625L4.5221 18.525C4.45774 18.5883 4.41629 18.6712 4.40428 18.7606V18.7606Z" stroke="#AB9A9A" stroke-width="0.8"/>
<path d="M16.7816 6.21967L19.7188 9.24217" stroke="#AB9A9A" stroke-width="0.8"/>
</svg>
