<svg width="25" height="26" viewBox="0 0 25 26" fill="none" xmlns="http://www.w3.org/2000/svg">
<path d="M23.5492 8.67244L13.1761 1.21597C12.9811 1.07578 12.7438 1 12.5 1C12.2562 1 12.0189 1.07578 11.8239 1.21597L1.45076 8.67244C1.3108 8.77303 1.19721 8.90346 1.11897 9.0534C1.04073 9.20335 1 9.36869 1 9.53633V23.9201C1 24.2065 1.11873 24.4812 1.33006 24.6837C1.5414 24.8862 1.82803 25 2.1269 25H8.55585C8.85473 25 9.14136 24.8862 9.35269 24.6837C9.56403 24.4812 9.68275 24.2065 9.68275 23.9201V19.3577C9.68275 19.0713 9.80148 18.7966 10.0128 18.5941C10.2241 18.3916 10.5108 18.2778 10.8097 18.2778H14.7538C15.0527 18.2778 15.3393 18.3916 15.5506 18.5941C15.762 18.7966 15.8807 19.0713 15.8807 19.3577V23.9201C15.8807 24.2065 15.9994 24.4812 16.2108 24.6837C16.4221 24.8862 16.7087 25 17.0076 25H22.8731C23.172 25 23.4586 24.8862 23.6699 24.6837C23.8813 24.4812 24 24.2065 24 23.9201V9.53633C24 9.36869 23.9593 9.20335 23.881 9.0534C23.8028 8.90346 23.6892 8.77303 23.5492 8.67244Z" stroke="#141515" stroke-width="0.8"/>
</svg>
