<svg width="23" height="24" viewBox="0 0 23 24" fill="none" xmlns="http://www.w3.org/2000/svg">
<path d="M15.925 1H7.075C3.71987 1 1 3.71987 1 7.075V16.8308C1 20.1859 3.71987 22.9058 7.075 22.9058H15.925C19.2801 22.9058 22 20.1859 22 16.8308V7.075C22 3.71987 19.2801 1 15.925 1Z" stroke="#FEE17A" stroke-width="0.6" stroke-linecap="round"/>
<path d="M11.5001 17.3039C14.4569 17.3039 16.8539 14.9069 16.8539 11.95C16.8539 8.99319 14.4569 6.59619 11.5001 6.59619C8.54324 6.59619 6.14624 8.99319 6.14624 11.95C6.14624 14.9069 8.54324 17.3039 11.5001 17.3039Z" stroke="#FEE17A" stroke-width="0.6" stroke-linecap="round"/>
<path d="M17.9096 5.63831C18.3302 5.63831 18.6711 5.29736 18.6711 4.87677C18.6711 4.45619 18.3302 4.11523 17.9096 4.11523C17.489 4.11523 17.1481 4.45619 17.1481 4.87677C17.1481 5.29736 17.489 5.63831 17.9096 5.63831Z" stroke="#FEE17A" stroke-width="0.6"/>
</svg>
