<?xml version="1.0" encoding="utf-8"?>
<!-- Generator: Adobe Illustrator 22.0.1, SVG Export Plug-In . SVG Version: 6.00 Build 0)  -->
<svg version="1.1" id="Слой_1" xmlns="http://www.w3.org/2000/svg" xmlns:xlink="http://www.w3.org/1999/xlink" x="0px" y="0px"
	 viewBox="0 0 768 768" style="enable-background:new 0 0 768 768;" xml:space="preserve">
<style type="text/css">
	.st0{fill-rule:evenodd;clip-rule:evenodd;fill:#CBAA25;}
	.st1{fill-rule:evenodd;clip-rule:evenodd;fill:url(#SVGID_1_);}
	.st2{fill-rule:evenodd;clip-rule:evenodd;fill:#FFFFFF;}
</style>
<g>
	<path class="st0" d="M134,535.9c0,3-1.2,5.5-3.6,7.4c-1.9,1.5-4.7,2.4-8.3,2.8c-1,0.1-3.9,0.1-8.8,0.1v11.3c0,1.9,0.7,3.1,2,3.7
		c0.7,0.2,2.2,0.4,4.5,0.5v1.5H101v-1.5c2.3-0.1,3.7-0.3,4.4-0.6c1-0.6,1.6-1.9,1.6-4v-23.8c0-2.8-0.3-4.4-0.9-5
		c-0.6-0.6-2.3-1-5-1.1v-1.5h17.8c4.1,0,7.4,0.7,10,2C132.2,529.4,134,532.1,134,535.9L134,535.9z M126.9,535.8
		c0-2.8-0.8-4.9-2.4-6.4c-1.6-1.5-3.8-2.2-6.5-2.2c-2.1,0-3.5,0.5-4,1.4c-0.4,0.7-0.6,2.2-0.6,4.5v11.6h3.6c3.3,0,5.8-0.6,7.3-1.9
		C126,541.4,126.9,539.1,126.9,535.8L126.9,535.8z M194.1,563.1h-17.3v-1.5c2.1,0,3.4-0.2,4.1-0.7c0.9-0.6,1.3-1.9,1.3-4v-25.1
		c0-1.8-0.5-3.1-1.4-3.8c-0.8-0.6-2.1-1-3.9-1v-1.5h17.3v1.5c-1.9,0-3.2,0.3-4,0.9c-0.9,0.7-1.3,2-1.3,3.8V557
		c0,1.8,0.5,3.1,1.4,3.8c0.8,0.6,2.1,0.9,3.9,0.9V563.1L194.1,563.1z M276.5,548.4c-1.2,0.1-2,0.2-2.3,0.3c-1,0.2-1.7,0.5-2.1,0.9
		c-0.6,0.5-0.8,2.1-0.8,4.6v5.9c-4.8,2.5-9.7,3.8-14.6,3.8c-5.6,0-10.3-1.8-13.9-5.3c-3.6-3.5-5.4-8.2-5.4-13.9
		c0-5.3,1.6-9.9,4.9-13.7c3.5-4,7.8-5.9,12.9-5.9c1.1,0,2.8,0.3,5.3,0.8c2.5,0.5,4.2,0.8,5.2,0.8c1.6,0,2.7-0.5,3.3-1.3h1.9v11.7h-1
		c-3.2-6.8-7.5-10.2-12.8-10.2c-4.1,0-7.2,2-9.5,6c-1.9,3.3-2.8,7.2-2.8,11.7c0,3.4,0.6,6.5,1.8,9.3c1.4,3.2,3.3,5.5,6,7
		c1.6,0.9,3.2,1.3,4.8,1.3c1.7,0,3.2-0.4,4.5-1.2c1.5-0.9,2.4-2.2,2.7-3.8c0.1-0.7,0.2-1.6,0.2-2.8c0-2.6-0.2-4.2-0.7-4.7
		c-0.4-0.5-1.9-0.9-4.5-1.2v-1.5h16.8V548.4L276.5,548.4z M363.5,563.1h-16.7v-1.5c3.4,0,5.1-1.5,5.1-4.5v-26.7L339,563.1h-1.6
		l-12.7-31.7v22.2c0,2.3,0.4,4.1,1.2,5.5c1,1.7,2.5,2.5,4.6,2.5v1.5h-13.1v-1.5c3.8,0,5.7-2.6,5.7-7.9v-24.3
		c-1.3-1.5-3.2-2.3-5.7-2.3v-1.5h11.8l11.5,28.4l11.4-28.4h11.2v1.5c-1.6,0-2.8,0.2-3.6,0.7c-1,0.6-1.5,1.7-1.5,3.3v26.6
		c0,1.6,0.5,2.7,1.5,3.3c0.8,0.4,2,0.6,3.6,0.6V563.1L363.5,563.1z M440.3,553.5l-2.9,9.6h-31.9v-1.5c2.2,0,3.7-0.2,4.5-0.7
		c0.8-0.5,1.2-1.7,1.2-3.5v-25.6c0-2.1-0.5-3.4-1.4-4c-0.7-0.4-2.1-0.6-4.3-0.6v-1.5h30.6l3.2,8.5h-1.9c-1.7-2.2-3.8-3.9-6.3-5.1
		c-2.5-1.3-5.1-1.9-7.8-1.9c-1.9,0-3.2,0.2-3.9,0.6c-1.1,0.6-1.7,1.7-1.7,3.4v12h5.6c4.4,0,6.7-2.1,6.7-6.4h1.8v14.1h-1.8
		c0-4.1-2.2-6.2-6.6-6.2h-5.7v13.1c0,0.8,0.1,1.5,0.3,2c0.4,1,1.3,1.6,3,1.9c0.7,0.1,2,0.2,3.8,0.2c2.8,0,5.3-0.8,7.6-2.4
		c1.5-1,3.4-2.9,5.8-5.7H440.3L440.3,553.5z M521.8,527.1c-1.8,0-3.1,0.6-4,1.7c-0.9,1.2-1.4,2.7-1.4,4.5V564l-1.5,0l-26.6-31.7
		v21.3c0,2.2,0.4,4,1.3,5.4c1,1.8,2.5,2.6,4.5,2.6v1.5h-12.8v-1.5c1.9,0,3.3-1.1,4.3-3.4c0.8-1.8,1.2-3.7,1.2-5.9v-21.7
		c-2-2.3-4-3.4-6.1-3.4v-1.5h10.7l23.4,27.9v-18.8c0-1.8-0.7-3.6-2.2-5.2c-1.4-1.6-3.1-2.4-4.8-2.4v-1.5h13.9V527.1L521.8,527.1z
		 M599.2,534.5h-1.9c-1.7-2.8-3.5-4.8-5.5-5.8c-1.9-1-4.5-1.5-7.9-1.5v30.1c0,1.9,0.6,3.1,1.7,3.7c0.8,0.4,2.1,0.6,4.2,0.6v1.5
		h-18.1v-1.5c1.7,0,2.8-0.1,3.3-0.2c1.3-0.3,2.1-1,2.3-2c0.1-0.6,0.2-1.4,0.2-2.5v-29.8c-3,0-5.6,0.6-7.6,1.9
		c-1.7,1-3.6,2.8-5.8,5.5h-1.6l1.9-8.8h32.9L599.2,534.5L599.2,534.5z M668.5,551.8c0,3.3-1.2,6.2-3.5,8.5c-2.3,2.3-5.1,3.5-8.3,3.5
		c-1.1,0-2.7-0.4-4.8-1.1c-2.1-0.7-3.7-1.1-4.8-1.1c-1.4,0-2.5,0.5-3.3,1.6h-1.4v-13.5h1.7c1.2,4.3,3,7.5,5.4,9.5
		c2.4,2.1,4.9,3.1,7.4,3.1c2.1,0,4-0.7,5.5-2c1.5-1.4,2.3-3.1,2.3-5.3c0-2.2-0.5-3.8-1.6-4.9c-1.8-1.8-4.8-2.9-9.2-3.5
		c-4.9-0.6-8.3-2.2-10.1-4.8c-1.2-1.7-1.8-3.7-1.8-6c0-3,1-5.6,2.9-7.7c1.9-2.1,4.4-3.1,7.3-3.1c0.9,0,2.1,0.2,3.9,0.5
		c1.7,0.3,3,0.5,3.9,0.5c0.9,0,1.8-0.2,2.6-0.7h2l1.1,10.9h-1.8c-1-2.9-2.5-5.2-4.4-7c-2.1-2-4.6-2.9-7.5-2.9c-1.9,0-3.5,0.7-4.9,2
		c-1.4,1.3-2.1,2.9-2.1,4.8c0,1.9,0.7,3.3,2.1,4.2c2.1,1.4,5.7,2.5,10.8,3.2c1.9,0.3,3.4,0.7,4.6,1.3
		C666.4,543.8,668.5,547.1,668.5,551.8z"/>
	<path class="st0" d="M62.4,266.9h201.8v6.7H65.7v334.5h636.6V273.6H503.9v-6.7H709v347.9H59c0-116,0-231.9,0-347.9H62.4z"/>
	<linearGradient id="SVGID_1_" gradientUnits="userSpaceOnUse" x1="281.6523" y1="194.1155" x2="533.8452" y2="322.9677">
		<stop  offset="0" style="stop-color:#C9AA26"/>
		<stop  offset="0.27" style="stop-color:#EBBF00"/>
		<stop  offset="0.44" style="stop-color:#FFE07A"/>
		<stop  offset="0.6" style="stop-color:#EFC305"/>
		<stop  offset="1" style="stop-color:#C9AA26"/>
	</linearGradient>
	<path class="st1" d="M374.7,272.8l0.2,3.1l1,3.8l0.3,3.6c1.7,5.3,3.1,10.4,5.5,15.5c2.4,5,5.5,9.3,8.2,14.1l-9.5,3.6
		c-5.7-6.4-10.6-14.7-14.7-24.6l-1.2-2.5c-0.2,0.2-0.4,0.4-0.5,0.6l-8.1,10.7l-0.1,0.1c-2.3,2.4-4.8,4.7-7.6,6.5
		c-1.7,1.1-3.5,2.3-5.3,3.2l0,0c-1.2,0.6-2.4,1.1-3.7,1.5c-1.3,0.4-2.6,0.8-3.9,1.2c-1.4,0.4-2.9,0.6-4.4,0.6
		c-1.2,0-2.5,0.1-3.7,0.1c-1.5,0.1-3,0-4.5-0.4c-1.2-0.4-2.4-0.8-3.5-1.4c-1.1-0.5-2.2-1.1-3.3-1.8l0,0c-1-0.6-2-1.3-3-2
		c-1.2-0.9-2.1-2-2.8-3.2c-0.7-1.2-1.3-2.4-1.7-3.7c-0.4-1.2-0.8-2.5-1-3.8c-0.2-1-0.2-2.1-0.2-3.1c0-1.6,0-3.2,0.1-4.8
		c0.1-1.9,0.2-3.9,0.5-5.8c-39.7,29.7-97.5,56.1-141.5,46.1c-8.2-1.8-16.4-5.2-22.6-11.1c4.7,0.7,7.1,2.5,11.9,4
		c51,16,126.4-28.9,162.4-64.7c0.4-0.7,0.8-1.4,1.3-2c1-1.4,2.3-2.9,3.5-4.1c1.9-2,3.9-3.9,5.9-5.8c3.6-3.4,8-7.3,12.4-9.6
		c2.7-1.4,5.6-2.8,8.5-3.9c1.8-0.7,4-1.4,5.9-1.5c1.1-0.1,2.2-0.3,3.3-0.6c0.3-0.1,0.4-0.1,0.5-0.4c0.2-1.6,0.2-3.5,0.1-5.1
		c0-0.9-0.2-2.9,0-4.2c-0.1-0.7,0-1.4,0-2c0.1-1.6,0.2-3.1,0.3-4.7c0.1-1.7,0.3-3.4,0.5-5.1c0.1-1,0.3-2.1,0.5-3.2l0,0l0,0
		c0.3-1.1,0.5-2.2,0.5-3.3c0.1-1,0.3-2.1,0.6-3.2c0.4-1.6,0.8-3.1,1.3-4.7c1.4-4.8,2.9-9.5,4.4-14.3c1.5-4.6,3.3-9.6,5.7-13.8
		c0.8-1.3,1.5-2.6,2.3-3.8c0.5-0.8,1.1-1.7,1.7-2.4c0.5-0.6,1.1-1.2,1.6-1.8c0.5-0.5,1-1,1.6-1.5c0.9-0.7,2.1-1.3,3.2-1.9
		c2-1.1,4.5-1.7,6.8-1.9c2.5-0.3,5.2-0.2,7.5,1c2.3,1.1,3.8,3.1,4.8,5.4c1.2,2.6,1.6,5.6,1.7,8.5c0.1,2.1,0.2,4.2,0.2,6.3
		c0,2-0.3,4.1-0.5,6.1c-0.1,1.1-0.3,2.3-0.4,3.4c-0.1,0.7-0.2,1.4-0.4,2.1c-0.2,0.5-0.3,1.1-0.4,1.6c-0.1,0.5-0.2,1.1-0.4,1.7
		c-0.3,1.2-0.6,2.3-0.9,3.5c-1.1,4.3-2.2,8.6-3.3,12.9c-1.1,4.4-2.3,8.8-3.4,13.1c-0.3,1.2-0.7,2.5-1,3.7c-0.2,0.7-0.4,1.3-0.6,1.9
		c-0.3,0.7-0.6,1.6-0.7,2.3c-0.2,0.8-0.5,1.6-0.8,2.4c-0.2,0.4-0.3,0.8-0.4,1.2c-0.1,0.5-0.3,0.9-0.4,1.4c-0.3,0.9-0.6,1.7-0.9,2.6
		c-1.1,3.2-2.2,6.4-3.3,9.6l0,0.1l-11.1,26.6l-0.1,0.2C375.2,271.5,374.9,272.1,374.7,272.8L374.7,272.8z M445.4,252
		c1.7-5.5,2-11.2,1-17.1c-0.5-2.9-2.1-10.5-5.3-11.8c-1.4-0.6-4.2-1.6-5.7-1.6c-1.4,0.1-3.5,1.3-4.6,2.1c-2.5,1.6-4.5,4.9-5.8,7.5
		c-2.4,4.8-4.8,9.7-7.2,14.5c-3.6,7.4-3.3,22.7-3,30.8c0.1,1.6,0.3,3.1,0.4,4.7c0.9-0.6,2.1-1,3.2-1.2c2.1-0.4,4.2-0.8,6.3-1.1
		c1.8-0.3,3.4-1,4.9-1.9c0.5-0.3,0.9-0.6,1.4-1c0,0,5.2-3.6,8.8-8.6C443.2,262.1,443.8,260.5,445.4,252L445.4,252z M460.2,240.2
		c0.5-5.3,0.2-10.6-1-15.8c-1.2-5.3-3.3-10.6-7.3-14.4c-3-2.8-6.8-5.1-11.1-4.8c-3.2,0.2-6.3,1.1-8.8,3.1c-2.2,1.8-4.3,3.8-6.1,5.9
		c-2.3,2.7-4.4,5.7-6.4,8.7c-2.3,3.6-4.4,7.3-6.2,11.2c-1.3,2.9-2.5,5.9-3.6,9l-3.6-15.6l0,0c-0.4-1.7-1.2-3.2-2.3-4.6l-0.9-1.1
		l-1.4,0.3c-3.1,0.7-4.9,3.1-5.7,6l-0.1,0.5l4.7,37.9l1,4.9c-3,15-5.8,30.1-8.4,45.2c-2.2,13.3-4.3,26.6-6,39.9
		c-0.7,5.5-1.3,11.1-1.4,16.6c-0.1,3.8,0,8,0.8,11.7c1,4.6,2.8,10.1,7,12.7c3.5,2.2,7.4,2.4,11.4,1.1c4.4-1.4,7.7-4.5,10.2-8.3
		c3.4-5.3,4.9-13.4,5.8-19.5c0.2-1.5,0.3-3,0.3-4.6c0.1-2.2,0-4.4,0-6.5c-0.1-6.4-0.5-12.9-0.9-19.4c-1.1-17.7-2.6-35.4-4.2-53
		c2,0.7,4.8,0.3,6.6,0c1.7-0.2,3.5-0.5,5.2-0.9c1.1-0.2,2.3-0.5,3.3-0.9l0,0c1.8-0.8,3.6-2,5.2-3.1c1-0.7,2.1-1.5,3-2.3
		c1.7-1.6,3.4-3.2,5.1-4.7c0.2-0.2,0.4-0.3,0.6-0.5c1.9-1.8,3.8-3.6,5.6-5.3l0.2-0.4c46.4-44.5,138.5-98.1,201.2-78.4
		c6,1.9,9.1,4.2,14.9,5c-7.7-7.4-18.1-11.6-28.4-14C582.8,169.6,510.1,202.8,460.2,240.2L460.2,240.2z M375.9,236.7
		c0.7,1,0.9,2.3,1,3.4l0.1,1.2l-2.5,2.2l-0.4,2l0.1,2.8l4.3-9.7c0.5-1.8,1-3.7,1.5-5.4c1.5-4.3,3-8.6,4.5-12.9
		c1.2-3.3,2.3-6.7,3.4-10.1c0.6-2.1,1.3-4.2,1.7-6.3c0.5-2.7,1.2-5.4,1.9-8c0.4-1.3,0.6-2.6,0.9-3.9c0.4-2.1,0.6-4.2,0.9-6.3
		c0.4-3.2,0.7-6.5,1.3-9.6c0.2-1.7-0.1-4.2-0.3-5.9c-0.1-0.9-0.6-3.7-1-4.4c-0.5-0.6-1.1-1.2-1.8-1.8c-0.5-0.4-1-0.6-1.6-0.8
		c0,0,0,0-0.1,0c0,0,0,0-0.1,0.1l0,0c-0.4,0.5-0.7,1.1-1,1.6c-0.6,1-1.1,2.1-1.7,3.1c-0.4,0.8-0.7,1.7-1,2.5
		c-0.5,1.5-0.9,2.9-1.3,4.4c-1.3,4.7-2.4,9.5-3.4,14.3c-1.1,5.1-2.2,10.3-3.3,15.5c-0.7,3.6-1.4,7.2-1.9,10.8
		c-0.7,4.7-1.3,9.5-1.5,14.2c-0.1,1-0.2,4.4,0.1,5.5C375.2,235.6,375.6,236.2,375.9,236.7L375.9,236.7z M325,302.4
		c0.5,0.4,1.1,0.7,1.7,0.9c0.9,0.3,3.8,0.1,4.7,0c1.2-0.1,3.9-0.4,5-0.9l0,0c0.9-0.4,1.8-0.8,2.7-1.2c0.5-0.2,1.2-0.8,1.7-1.1
		c1.3-0.9,2.5-1.8,3.7-2.8c3.2-2.5,5.9-5.5,8.2-8.9c2.9-4.2,5.5-8.6,7.9-13l0-0.1l0.8-1.2l-0.2-2.2c-0.3-2-0.5-4.1-0.6-6.1
		c-0.4-6.2-0.9-12.4-1.6-18.6c-0.2-1.8-0.4-3.5-0.7-5.3c0-0.2-0.1-0.5-0.1-0.9c0,0-0.1,0-0.1,0c-1.1,0.3-2.3,0.8-3.3,1.3
		c-1,0.4-2,1-3,1.6c-1.6,1-3.1,2-4.6,3c-3.8,2.6-7.1,5.9-10,9.5c-1.3,1.5-2.5,3.1-3.7,4.7c-0.4,0.6-1.1,1.4-1.5,2
		c-0.6,1.2-1.6,2.6-2.5,3.6c-0.6,1.2-1.2,2.4-1.8,3.5c-0.2,0.5-0.6,1.1-0.7,1.6l0,0l0,0.1c-0.6,1.8-1.3,3.6-2,5.4
		c-1,2.7-1.7,5.4-2.2,8.3c-0.3,1.8-0.7,3.9-0.9,5.7c-0.1,0.9-0.1,1.8-0.1,2.7c0,0.8,0.1,1.7,0.3,2.5c0.2,1.1,0.8,2.5,1.3,3.5
		C323.7,300.5,324.5,301.9,325,302.4L325,302.4z M404.8,301.3c-1.8,9.8-3.6,19.6-5.2,29.4c-1.8,11-3.3,22.3-4,33.4
		c-0.2,3.8-0.4,7.6-0.2,11.4c0.1,2.3,0.3,5,1,7.2c0.5,1.8,1.6,4.4,3.8,4.6c1.9,0.2,2.6-1.2,3.2-2.8c0.9-2.7,1.6-5.5,1.9-8.4
		c0.3-4.7,0.4-9.4,0.6-14.1c0.1-4.8,0.1-9.6,0-14.4c-0.1-7.8-0.2-15.5-0.4-23.3c-0.2-6.9-0.4-13.8-0.6-20.7
		C404.8,303,404.8,302.2,404.8,301.3L404.8,301.3z"/>
	<path class="st2" d="M174.3,507.1c8.3-6.4,12.5-17.4,12.5-33.1c0-15.4-3.4-26.2-10.3-32.5c5.7,3.8,10,8.4,12.9,13.8
		c2.9,5.4,4.4,11.6,4.4,18.5C193.9,488.2,187.3,499.4,174.3,507.1L174.3,507.1z M117.9,433.9v79c-3.6,0-9.1,0.3-16.8,0.9v-1.4
		c3.8-1.1,6.6-3.3,8.2-6.8c1.6-3.3,2.3-10.2,2.3-20.6v-31c0-6.4-0.8-11-2.3-13.9c-1.5-2.8-4.3-4.8-8.2-6v-1.3
		C107.6,433.4,113.2,433.8,117.9,433.9L117.9,433.9z M130.6,440.7c-0.8,2.3-1.2,10.1-1.2,23.7v18.3c0,11,0.7,19,2.2,24.1
		c3.8,1.2,8.2,1.8,13.2,1.8c9.2,0,16.5-2.9,21.8-8.8c5.4-5.9,8-14.6,8-26.1c0-11.2-2.6-20-7.9-26.2c-5.3-6.2-13.1-9.3-23.4-9.3
		C138,438.2,133.7,439,130.6,440.7L130.6,440.7z M127.8,512.9c0.8,0,1.3,0,1.5,0c6.3,0.6,11.9,0.9,16.9,0.9
		c10.8,0,19.3-3.5,25.6-10.6c6.3-7.1,9.4-17.2,9.4-30.3c0-8.6-1.3-15.6-3.9-21.2c-2.6-5.7-6.6-10.3-11.9-13.8
		c-5.3-3.4-11.7-5.1-19.2-5.1c-1.5,0-4.4,0.2-8.5,0.5c-2.8,0.2-7.6,0.4-14.5,0.6v79H127.8L127.8,512.9z M266.3,470.7
		c3.3-5.2,4.9-10.9,4.9-17.1c0-5.7-1.9-11.4-5.6-17.1c8.6,3.7,12.9,9.5,12.9,17.3C278.5,461.8,274.4,467.4,266.3,470.7L266.3,470.7z
		 M220.7,433.9v79h-3.2c-1.3,0-3.2,0.2-5.9,0.5c-2.3,0.3-5,0.5-8.1,0.5v-1.4c3.2-0.4,5.9-1.9,8-4.7c2.1-2.8,3.2-8.2,3.2-16.2v-38.6
		c0-10.9-3.7-17.1-11.1-18.7v-1.4C206.6,433.3,212.4,433.6,220.7,433.9L220.7,433.9z M232.4,454.4v16.3c3,0.7,6.2,1.1,9.6,1.1
		c11.3,0,16.9-5.9,16.9-17.6c0-11-5.6-16.5-16.7-16.5c-3.6,0-6.4,0.7-8.4,2.2C232.8,442,232.4,446.8,232.4,454.4L232.4,454.4z
		 M228.3,512.9c3.9,0,8.9,0.3,14.9,0.9v-1.4c-7.2-1-10.8-7.6-10.8-19.5v-17.8c3,0.9,6,2.6,9.1,4.9c2.9,2.3,7.3,6.7,13.3,13.1
		c4.1,4.4,7.6,8,10.6,10.8c2.9,2.8,5.3,4.8,7.2,6.2c3.6,2.5,7.8,3.7,12.6,3.7c1.6,0,3.3-0.3,5-0.9v-0.7c-3.7,0-7.5-1.5-11.5-4.6
		c-4-3.1-9.2-8.1-15.8-14.9c-9.3-9.7-16.7-15.5-22.1-17.2c8.8,0,17.8,4.8,27.1,14.4c7.8,7.9,13.6,13.2,17.5,15.9
		c4.2,2.9,8.2,4.3,11.9,4.3c3.6,0,6.3-1.3,8.4-3.9l-0.3-1.4c-1.3,0.8-2.6,1.3-3.8,1.3c-6.2,0-14.1-5-23.9-14.8
		c-6.4-6.5-11.2-10.8-14.3-12.9c-2.9-2-6.6-3.3-11-3.9c8.8-2.9,13.1-9.6,13.1-20c0-6.1-1.7-11.3-5.1-15.5c-3.3-4.2-8.4-6.3-15.3-6.3
		c-2.5,0-5.6,0.2-9.5,0.6c-3.4,0.3-6.6,0.5-9.6,0.5v79H228.3L228.3,512.9z M374.8,505.2c5.5-7.4,8.2-18.5,8.2-33.4
		c0-13.2-2.7-23.4-8.1-30.8c10.3,6.2,15.4,16.7,15.4,31.6C390.3,487.3,385.2,498.1,374.8,505.2L374.8,505.2z M314.4,440.9
		c-5.5,8.5-8.3,19.4-8.3,32.6c0,12,2.6,22.4,7.9,31.2c-10.1-6.7-15.2-17.3-15.2-31.9C298.9,457.7,304,447.1,314.4,440.9L314.4,440.9
		z M370.5,473.1c0-24-8.7-35.9-26.1-35.9c-17,0-25.6,12.3-25.6,36.8c0,23.1,8.6,34.7,25.9,34.7C361.9,508.6,370.5,496.8,370.5,473.1
		L370.5,473.1z M377.5,473c0-13.7-2.9-24.2-8.9-31.3c-5.9-7.1-14-10.7-24.3-10.7c-10.1,0-18,3.6-23.9,10.7
		c-5.8,7.3-8.7,17.7-8.7,31.2c0,13.1,2.9,23.3,8.6,30.8c5.7,7.4,13.8,11.2,24.1,11.2c6.6,0,12.3-1.5,17.2-4.6c5-3,8.9-7.7,11.6-14
		C376.1,490,377.5,482.2,377.5,473L377.5,473z M459.1,510.8c4.6-4.9,6.9-11,6.9-18.6c0-8.1-2.4-14.6-7.2-19.6
		c9.5,3.5,14.2,9.8,14.2,19c0,4.5-1.3,8.6-4,12.1C466.4,507.3,463.1,509.7,459.1,510.8L459.1,510.8z M455.3,468.4
		c3-4,4.6-8.8,4.6-14.3c0-4.4-0.8-8.3-2.5-11.7c-1.8-3.6-3.8-5.9-6.1-7.1c5,1,8.7,3.2,11.4,6.4c2.6,3.3,4,6.9,4,10.8
		c0,3.5-1.1,6.9-3.3,10C461.2,465.4,458.5,467.4,455.3,468.4L455.3,468.4z M415.2,433.9v79c-4.4,0.2-9.6,0.5-15.8,0.9v-1.4
		c6.4-1.8,9.6-8.6,9.6-20.4V453c0-10.4-3.2-16.7-9.6-18.8v-1.4C404.7,433.4,409.9,433.8,415.2,433.9L415.2,433.9z M434.4,474.8h-7.5
		v13.4c0,9.4,1,15.4,3.1,17.9c1.7,1.4,4.4,2,7.9,2c5.8,0,10-1.7,12.5-5.1c2.4-3.4,3.6-7.4,3.6-11.9c0-3.6-0.8-6.7-2.3-9.3
		c-1.6-2.6-3.6-4.5-6-5.5C443.1,475.3,439.4,474.8,434.4,474.8L434.4,474.8z M426.9,454.3v15.1h5.8c4.8,0,8.5-1.3,11.1-3.9
		c2.6-2.6,3.9-6.4,3.9-11.3c0-5.1-1.4-8.9-4.2-11.6c-2.8-2.6-6.2-3.9-10-3.9c-2.1,0-3.9,0.5-5.2,1.6
		C427.4,443,426.9,447.7,426.9,454.3L426.9,454.3z M420.8,512.9c1.8,0,4.3,0.1,7.3,0.3c3.4,0.4,6.6,0.6,9.6,0.6
		c8,0,13.8-2.2,17.4-6.7c3.6-4.4,5.3-9.5,5.3-15.3c0-11.6-5.4-18.6-16.2-21.1c6.7-3.4,10.1-9,10.1-16.7c0-6.2-1.8-11.3-5.6-15.3
		c-3.7-3.9-8.8-5.9-15.1-5.9l-12.8,1.1V512.9L420.8,512.9z M557.4,505.2c5.5-7.4,8.2-18.5,8.2-33.4c0-13.2-2.7-23.4-8.1-30.8
		c10.3,6.2,15.4,16.7,15.4,31.6C572.9,487.3,567.7,498.1,557.4,505.2L557.4,505.2z M497,440.9c-5.5,8.5-8.3,19.4-8.3,32.6
		c0,12,2.6,22.4,7.9,31.2c-10.1-6.7-15.2-17.3-15.2-31.9C481.4,457.7,486.6,447.1,497,440.9L497,440.9z M553.1,473.1
		c0-24-8.7-35.9-26.1-35.9c-17,0-25.6,12.3-25.6,36.8c0,23.1,8.6,34.7,25.9,34.7C544.5,508.6,553.1,496.8,553.1,473.1L553.1,473.1z
		 M560.1,473c0-13.7-2.9-24.2-8.9-31.3c-5.9-7.1-14-10.7-24.3-10.7c-10.1,0-18,3.6-23.9,10.7c-5.8,7.3-8.7,17.7-8.7,31.2
		c0,13.1,2.9,23.3,8.6,30.8c5.7,7.4,13.8,11.2,24.1,11.2c6.6,0,12.3-1.5,17.2-4.6c5-3,8.9-7.7,11.6-14
		C558.7,490,560.1,482.2,560.1,473L560.1,473z M627.1,512.9h-2v-79h27.1c4.9,0,9.8-0.3,14.6-0.9c0,0.9-0.1,2.7-0.2,5.2
		c-0.2,2.3-0.2,5.2-0.2,8.6c0,2.2-0.1,4.4-0.4,6.7h-1.8c-0.1-4.1-1.1-7.5-3.1-10.2c-2-2.7-6.2-4.1-12.7-4.1h-17v53.7
		c0,6.1,0.9,10.8,2.6,13.9c1.7,3.1,4.4,5,8.1,5.8v1.4C633.3,513.2,628.3,512.9,627.1,512.9L627.1,512.9z M594.8,433.9h24.8v79h-2.3
		c-3.3,0-8.1,0.3-14.6,0.9v-1.4c4.1-1,7-3.2,8.6-6.4c1.5-3.1,2.3-8.4,2.3-15.7v-51.2h-19.1c-4.9,0-8.3,1-10.3,3c-2,2-3.7,5.8-5,11.3
		h-1.7c0-0.7-0.1-1.4-0.1-2.1c0-1,0.1-2.3,0.3-3.8c0.6-5.4,0.9-10.2,0.9-14.5c2.6,0.4,5.9,0.6,9.9,0.7L594.8,433.9z"/>
</g>
</svg>
