<?xml version="1.0" encoding="utf-8"?>
<!-- Generator: Adobe Illustrator 22.0.1, SVG Export Plug-In . SVG Version: 6.00 Build 0)  -->
<svg version="1.1" id="Слой_1" xmlns="http://www.w3.org/2000/svg" xmlns:xlink="http://www.w3.org/1999/xlink" x="0px" y="0px"
	 viewBox="0 0 161 114" style="enable-background:new 0 0 161 114;" xml:space="preserve">
<style type="text/css">
	.st0{fill-rule:evenodd;clip-rule:evenodd;fill:#CBAA25;}
	.st1{fill-rule:evenodd;clip-rule:evenodd;fill:url(#SVGID_1_);}
	.st2{fill-rule:evenodd;clip-rule:evenodd;fill:#FFFFFF;}
</style>
<g>
	<path class="st0" d="M18.7,94.5c0,0.8-0.3,1.4-0.9,1.8c-0.5,0.4-1.1,0.6-2,0.7c-0.2,0-1,0-2.2,0v2.8c0,0.5,0.2,0.8,0.5,0.9
		c0.2,0.1,0.5,0.1,1.1,0.1v0.4h-4.7v-0.4c0.6,0,0.9-0.1,1.1-0.1c0.3-0.1,0.4-0.5,0.4-1v-5.9c0-0.7-0.1-1.1-0.2-1.2
		c-0.1-0.1-0.6-0.2-1.2-0.3V92H15c1,0,1.8,0.2,2.5,0.5C18.3,92.9,18.7,93.6,18.7,94.5L18.7,94.5z M17,94.5c0-0.7-0.2-1.2-0.6-1.6
		c-0.4-0.4-0.9-0.6-1.6-0.6c-0.5,0-0.9,0.1-1,0.4c-0.1,0.2-0.2,0.5-0.2,1.1v2.9h0.9c0.8,0,1.4-0.2,1.8-0.5
		C16.7,95.9,17,95.3,17,94.5L17,94.5z M33.5,101.3h-4.3v-0.4c0.5,0,0.9-0.1,1-0.2c0.2-0.1,0.3-0.5,0.3-1v-6.2c0-0.4-0.1-0.8-0.4-0.9
		c-0.2-0.2-0.5-0.2-1-0.2V92h4.3v0.4c-0.5,0-0.8,0.1-1,0.2c-0.2,0.2-0.3,0.5-0.3,0.9v6.2c0,0.4,0.1,0.8,0.3,0.9
		c0.2,0.1,0.5,0.2,1,0.2V101.3L33.5,101.3z M53.9,97.6c-0.3,0-0.5,0.1-0.6,0.1c-0.3,0.1-0.4,0.1-0.5,0.2c-0.1,0.1-0.2,0.5-0.2,1.1
		v1.5c-1.2,0.6-2.4,0.9-3.6,0.9c-1.4,0-2.5-0.4-3.4-1.3c-0.9-0.9-1.3-2-1.3-3.4c0-1.3,0.4-2.5,1.2-3.4c0.9-1,1.9-1.5,3.2-1.5
		c0.3,0,0.7,0.1,1.3,0.2c0.6,0.1,1,0.2,1.3,0.2c0.4,0,0.7-0.1,0.8-0.3h0.5v2.9h-0.2c-0.8-1.7-1.9-2.5-3.2-2.5c-1,0-1.8,0.5-2.3,1.5
		c-0.5,0.8-0.7,1.8-0.7,2.9c0,0.8,0.1,1.6,0.4,2.3c0.3,0.8,0.8,1.4,1.5,1.7c0.4,0.2,0.8,0.3,1.2,0.3c0.4,0,0.8-0.1,1.1-0.3
		c0.4-0.2,0.6-0.5,0.7-0.9c0-0.2,0-0.4,0-0.7c0-0.6-0.1-1-0.2-1.2c-0.1-0.1-0.5-0.2-1.1-0.3v-0.4h4.2V97.6L53.9,97.6z M75.4,101.3
		h-4.1v-0.4c0.8,0,1.3-0.4,1.3-1.1v-6.6l-3.2,8.1H69l-3.1-7.8v5.5c0,0.6,0.1,1,0.3,1.4c0.2,0.4,0.6,0.6,1.1,0.6v0.4h-3.2v-0.4
		c0.9,0,1.4-0.7,1.4-2v-6c-0.3-0.4-0.8-0.6-1.4-0.6V92H67l2.9,7l2.8-7h2.8v0.4c-0.4,0-0.7,0.1-0.9,0.2c-0.3,0.1-0.4,0.4-0.4,0.8v6.6
		c0,0.4,0.1,0.7,0.4,0.8c0.2,0.1,0.5,0.2,0.9,0.2V101.3L75.4,101.3z M94.4,98.9l-0.7,2.4h-7.9v-0.4c0.5,0,0.9-0.1,1.1-0.2
		c0.2-0.1,0.3-0.4,0.3-0.9v-6.3c0-0.5-0.1-0.8-0.3-1c-0.2-0.1-0.5-0.2-1.1-0.2V92h7.6l0.8,2.1h-0.5c-0.4-0.5-0.9-1-1.6-1.3
		c-0.6-0.3-1.3-0.5-1.9-0.5c-0.5,0-0.8,0-1,0.1c-0.3,0.1-0.4,0.4-0.4,0.8v3h1.4c1.1,0,1.6-0.5,1.6-1.6h0.4v3.5h-0.4
		c0-1-0.5-1.5-1.6-1.5h-1.4v3.2c0,0.2,0,0.4,0.1,0.5c0.1,0.2,0.3,0.4,0.7,0.5c0.2,0,0.5,0,0.9,0c0.7,0,1.3-0.2,1.9-0.6
		c0.4-0.3,0.8-0.7,1.4-1.4H94.4L94.4,98.9z M114.6,92.4c-0.4,0-0.8,0.1-1,0.4c-0.2,0.3-0.3,0.7-0.3,1.1v7.6l-0.4,0l-6.6-7.8v5.3
		c0,0.5,0.1,1,0.3,1.3c0.2,0.4,0.6,0.7,1.1,0.7v0.4h-3.2v-0.4c0.5,0,0.8-0.3,1.1-0.9c0.2-0.4,0.3-0.9,0.3-1.5v-5.4
		c-0.5-0.6-1-0.8-1.5-0.8V92h2.7l5.8,6.9v-4.6c0-0.5-0.2-0.9-0.5-1.3c-0.4-0.4-0.8-0.6-1.2-0.6V92h3.4V92.4L114.6,92.4z M133.7,94.2
		h-0.5c-0.4-0.7-0.9-1.2-1.4-1.4c-0.5-0.2-1.1-0.4-1.9-0.4v7.4c0,0.5,0.1,0.8,0.4,0.9c0.2,0.1,0.5,0.2,1,0.2v0.4h-4.5v-0.4
		c0.4,0,0.7,0,0.8,0c0.3-0.1,0.5-0.2,0.6-0.5c0-0.1,0.1-0.3,0.1-0.6v-7.4c-0.8,0-1.4,0.2-1.9,0.5c-0.4,0.2-0.9,0.7-1.4,1.4h-0.4
		l0.5-2.2h8.1L133.7,94.2L133.7,94.2z M150.8,98.5c0,0.8-0.3,1.5-0.9,2.1c-0.6,0.6-1.3,0.9-2.1,0.9c-0.3,0-0.7-0.1-1.2-0.3
		c-0.5-0.2-0.9-0.3-1.2-0.3c-0.3,0-0.6,0.1-0.8,0.4h-0.4v-3.3h0.4c0.3,1.1,0.7,1.9,1.3,2.4c0.6,0.5,1.2,0.8,1.8,0.8
		c0.5,0,1-0.2,1.4-0.5c0.4-0.3,0.6-0.8,0.6-1.3c0-0.5-0.1-0.9-0.4-1.2c-0.4-0.4-1.2-0.7-2.3-0.9c-1.2-0.2-2.1-0.6-2.5-1.2
		c-0.3-0.4-0.5-0.9-0.5-1.5c0-0.7,0.2-1.4,0.7-1.9c0.5-0.5,1.1-0.8,1.8-0.8c0.2,0,0.5,0,1,0.1c0.4,0.1,0.7,0.1,1,0.1
		c0.2,0,0.4-0.1,0.6-0.2h0.5l0.3,2.7h-0.4c-0.2-0.7-0.6-1.3-1.1-1.7c-0.5-0.5-1.1-0.7-1.8-0.7c-0.5,0-0.9,0.2-1.2,0.5
		c-0.4,0.3-0.5,0.7-0.5,1.2c0,0.5,0.2,0.8,0.5,1.1c0.5,0.3,1.4,0.6,2.7,0.8c0.5,0.1,0.8,0.2,1.1,0.3
		C150.3,96.5,150.8,97.3,150.8,98.5z"/>
	<path class="st0" d="M1,28h49.9v1.7h-49v82.7h157.4V29.7h-49V28h50.7v86H0.2c0-28.7,0-57.3,0-86H1z"/>
	<linearGradient id="SVGID_1_" gradientUnits="userSpaceOnUse" x1="55.2009" y1="10.063" x2="117.5398" y2="41.9136">
		<stop  offset="0" style="stop-color:#C9AA26"/>
		<stop  offset="0.27" style="stop-color:#EBBF00"/>
		<stop  offset="0.44" style="stop-color:#FFE07A"/>
		<stop  offset="0.6" style="stop-color:#EFC305"/>
		<stop  offset="1" style="stop-color:#C9AA26"/>
	</linearGradient>
	<path class="st1" d="M78.2,29.5l0.1,0.8l0.2,0.9l0.1,0.9c0.4,1.3,0.8,2.6,1.4,3.8c0.6,1.2,1.4,2.3,2,3.5l-2.4,0.9
		c-1.4-1.6-2.6-3.6-3.6-6.1l-0.3-0.6c0,0-0.1,0.1-0.1,0.1l-2,2.6l0,0C73,37,72.4,37.6,71.7,38c-0.4,0.3-0.9,0.6-1.3,0.8l0,0
		c-0.3,0.1-0.6,0.3-0.9,0.4c-0.3,0.1-0.6,0.2-1,0.3c-0.4,0.1-0.7,0.1-1.1,0.1c-0.3,0-0.6,0-0.9,0c-0.4,0-0.8,0-1.1-0.1
		c-0.3-0.1-0.6-0.2-0.9-0.3c-0.3-0.1-0.5-0.3-0.8-0.4l0,0c-0.3-0.2-0.5-0.3-0.7-0.5c-0.3-0.2-0.5-0.5-0.7-0.8
		c-0.2-0.3-0.3-0.6-0.4-0.9c-0.1-0.3-0.2-0.6-0.2-0.9c0-0.2-0.1-0.5-0.1-0.8c0-0.4,0-0.8,0-1.2c0-0.5,0.1-1,0.1-1.4
		c-9.8,7.3-24.1,13.9-35,11.4c-2-0.5-4.1-1.3-5.6-2.7c1.2,0.2,1.8,0.6,2.9,1c12.6,4,31.2-7.1,40.1-16c0.1-0.2,0.2-0.3,0.3-0.5
		c0.2-0.4,0.6-0.7,0.9-1c0.5-0.5,1-1,1.5-1.4c0.9-0.8,2-1.8,3.1-2.4c0.7-0.4,1.4-0.7,2.1-1c0.5-0.2,1-0.3,1.5-0.4
		c0.3,0,0.6-0.1,0.8-0.1c0.1,0,0.1,0,0.1-0.1c0.1-0.4,0-0.9,0-1.3c0-0.2,0-0.7,0-1c0-0.2,0-0.3,0-0.5c0-0.4,0.1-0.8,0.1-1.2
		c0-0.4,0.1-0.8,0.1-1.3c0-0.3,0.1-0.5,0.1-0.8l0,0l0,0c0.1-0.3,0.1-0.5,0.1-0.8c0-0.3,0.1-0.5,0.1-0.8c0.1-0.4,0.2-0.8,0.3-1.2
		c0.3-1.2,0.7-2.4,1.1-3.5c0.4-1.1,0.8-2.4,1.4-3.4c0.2-0.3,0.4-0.6,0.6-1c0.1-0.2,0.3-0.4,0.4-0.6c0.1-0.1,0.3-0.3,0.4-0.4
		c0.1-0.1,0.3-0.3,0.4-0.4c0.2-0.2,0.5-0.3,0.8-0.5c0.5-0.3,1.1-0.4,1.7-0.5c0.6-0.1,1.3,0,1.8,0.2c0.6,0.3,0.9,0.8,1.2,1.3
		c0.3,0.7,0.4,1.4,0.4,2.1c0,0.5,0.1,1,0.1,1.6c0,0.5-0.1,1-0.1,1.5c0,0.3-0.1,0.6-0.1,0.8c0,0.2,0,0.4-0.1,0.5
		c0,0.1-0.1,0.3-0.1,0.4c0,0.1-0.1,0.3-0.1,0.4C85,9.2,85,9.5,84.9,9.8c-0.3,1.1-0.5,2.1-0.8,3.2c-0.3,1.1-0.6,2.2-0.9,3.2
		c-0.1,0.3-0.2,0.6-0.3,0.9c0,0.2-0.1,0.3-0.1,0.5c-0.1,0.2-0.1,0.4-0.2,0.6c0,0.2-0.1,0.4-0.2,0.6c0,0.1-0.1,0.2-0.1,0.3
		c0,0.1-0.1,0.2-0.1,0.3c-0.1,0.2-0.1,0.4-0.2,0.6c-0.3,0.8-0.5,1.6-0.8,2.4l0,0L78.4,29l0,0C78.3,29.2,78.3,29.3,78.2,29.5
		L78.2,29.5z M95.7,24.4c0.4-1.4,0.5-2.8,0.2-4.2c-0.1-0.7-0.5-2.6-1.3-2.9c-0.4-0.1-1-0.4-1.4-0.4c-0.3,0-0.9,0.3-1.1,0.5
		c-0.6,0.4-1.1,1.2-1.4,1.8c-0.6,1.2-1.2,2.4-1.8,3.6c-0.9,1.8-0.8,5.6-0.7,7.6c0,0.4,0.1,0.8,0.1,1.2c0.2-0.2,0.5-0.2,0.8-0.3
		c0.5-0.1,1-0.2,1.6-0.3c0.4-0.1,0.8-0.2,1.2-0.5c0.1-0.1,0.2-0.2,0.3-0.3c0,0,1.3-0.9,2.2-2.1C95.1,26.9,95.3,26.5,95.7,24.4
		L95.7,24.4z M99.3,21.4c0.1-1.3,0.1-2.6-0.2-3.9c-0.3-1.3-0.8-2.6-1.8-3.6c-0.7-0.7-1.7-1.3-2.8-1.2c-0.8,0.1-1.5,0.3-2.2,0.8
		c-0.6,0.4-1.1,0.9-1.5,1.5c-0.6,0.7-1.1,1.4-1.6,2.2c-0.6,0.9-1.1,1.8-1.5,2.8c-0.3,0.7-0.6,1.5-0.9,2.2L86,18.3l0,0
		c-0.1-0.4-0.3-0.8-0.6-1.1l-0.2-0.3L84.8,17c-0.8,0.2-1.2,0.8-1.4,1.5l0,0.1l1.2,9.4l0.2,1.2c-0.7,3.7-1.4,7.4-2.1,11.2
		c-0.6,3.3-1.1,6.6-1.5,9.9c-0.2,1.4-0.3,2.7-0.3,4.1c0,0.9,0,2,0.2,2.9c0.2,1.1,0.7,2.5,1.7,3.1c0.9,0.5,1.8,0.6,2.8,0.3
		c1.1-0.3,1.9-1.1,2.5-2c0.8-1.3,1.2-3.3,1.4-4.8c0.1-0.4,0.1-0.8,0.1-1.1c0-0.5,0-1.1,0-1.6c0-1.6-0.1-3.2-0.2-4.8
		c-0.3-4.4-0.6-8.7-1-13.1c0.5,0.2,1.2,0.1,1.6,0c0.4-0.1,0.9-0.1,1.3-0.2c0.3-0.1,0.6-0.1,0.8-0.2l0,0c0.4-0.2,0.9-0.5,1.3-0.8
		c0.3-0.2,0.5-0.4,0.8-0.6c0.4-0.4,0.8-0.8,1.3-1.2c0,0,0.1-0.1,0.1-0.1c0.5-0.4,0.9-0.9,1.4-1.3l0-0.1c11.5-11,34.2-24.3,49.7-19.4
		c1.5,0.5,2.2,1,3.7,1.2c-1.9-1.8-4.5-2.9-7-3.4C129.6,4,111.7,12.2,99.3,21.4L99.3,21.4z M78.5,20.6c0.2,0.2,0.2,0.6,0.2,0.8l0,0.3
		l-0.6,0.5L78,22.8l0,0.7l1.1-2.4c0.1-0.4,0.2-0.9,0.4-1.3c0.4-1.1,0.7-2.1,1.1-3.2c0.3-0.8,0.6-1.7,0.8-2.5c0.2-0.5,0.3-1,0.4-1.6
		c0.1-0.7,0.3-1.3,0.5-2c0.1-0.3,0.2-0.7,0.2-1c0.1-0.5,0.2-1,0.2-1.6c0.1-0.8,0.2-1.6,0.3-2.4c0.1-0.4,0-1-0.1-1.5
		c0-0.2-0.1-0.9-0.3-1.1c-0.1-0.2-0.3-0.3-0.4-0.4c-0.1-0.1-0.3-0.2-0.4-0.2c0,0,0,0,0,0c0,0,0,0,0,0l0,0c-0.1,0.1-0.2,0.3-0.3,0.4
		c-0.1,0.3-0.3,0.5-0.4,0.8C81.2,3.8,81.1,4,81,4.2c-0.1,0.4-0.2,0.7-0.3,1.1c-0.3,1.2-0.6,2.3-0.8,3.5c-0.3,1.3-0.6,2.5-0.8,3.8
		c-0.2,0.9-0.3,1.8-0.5,2.7c-0.2,1.2-0.3,2.3-0.4,3.5c0,0.3-0.1,1.1,0,1.4C78.3,20.3,78.4,20.5,78.5,20.6L78.5,20.6z M65.9,36.8
		c0.1,0.1,0.3,0.2,0.4,0.2c0.2,0.1,0.9,0,1.2,0c0.3,0,1-0.1,1.2-0.2l0,0c0.2-0.1,0.4-0.2,0.7-0.3c0.1-0.1,0.3-0.2,0.4-0.3
		c0.3-0.2,0.6-0.5,0.9-0.7c0.8-0.6,1.5-1.4,2-2.2c0.7-1,1.4-2.1,2-3.2l0,0l0.2-0.3l-0.1-0.5c-0.1-0.5-0.1-1-0.2-1.5
		c-0.1-1.5-0.2-3.1-0.4-4.6c0-0.4-0.1-0.9-0.2-1.3c0-0.1,0-0.1,0-0.2c0,0,0,0,0,0c-0.3,0.1-0.6,0.2-0.8,0.3
		c-0.2,0.1-0.5,0.3-0.7,0.4c-0.4,0.2-0.8,0.5-1.1,0.7c-0.9,0.6-1.8,1.5-2.5,2.3c-0.3,0.4-0.6,0.8-0.9,1.2c-0.1,0.1-0.3,0.3-0.4,0.5
		c-0.1,0.3-0.4,0.6-0.6,0.9c-0.2,0.3-0.3,0.6-0.4,0.9c-0.1,0.1-0.1,0.3-0.2,0.4l0,0l0,0c-0.2,0.4-0.3,0.9-0.5,1.3
		c-0.2,0.7-0.4,1.3-0.6,2c-0.1,0.4-0.2,1-0.2,1.4c0,0.2,0,0.4,0,0.7c0,0.2,0,0.4,0.1,0.6c0,0.3,0.2,0.6,0.3,0.9
		C65.6,36.4,65.8,36.7,65.9,36.8L65.9,36.8z M85.6,36.6c-0.5,2.4-0.9,4.8-1.3,7.3c-0.4,2.7-0.8,5.5-1,8.3c-0.1,0.9-0.1,1.9,0,2.8
		c0,0.6,0.1,1.2,0.2,1.8c0.1,0.5,0.4,1.1,0.9,1.1c0.5,0.1,0.7-0.3,0.8-0.7c0.2-0.7,0.4-1.4,0.5-2.1c0.1-1.2,0.1-2.3,0.1-3.5
		c0-1.2,0-2.4,0-3.6c0-1.9-0.1-3.8-0.1-5.8c0-1.7-0.1-3.4-0.1-5.1C85.6,37,85.6,36.8,85.6,36.6L85.6,36.6z"/>
	<path class="st2" d="M28.7,87.4c2.1-1.6,3.1-4.3,3.1-8.2c0-3.8-0.8-6.5-2.5-8c1.4,0.9,2.5,2.1,3.2,3.4c0.7,1.3,1.1,2.9,1.1,4.6
		C33.5,82.8,31.9,85.5,28.7,87.4L28.7,87.4z M14.7,69.3v19.5c-0.9,0-2.3,0.1-4.1,0.2v-0.3c1-0.3,1.6-0.8,2-1.7
		c0.4-0.8,0.6-2.5,0.6-5.1v-7.7c0-1.6-0.2-2.7-0.6-3.4c-0.4-0.7-1.1-1.2-2-1.5v-0.3C12.2,69.2,13.6,69.3,14.7,69.3L14.7,69.3z
		 M17.9,71c-0.2,0.6-0.3,2.5-0.3,5.9v4.5c0,2.7,0.2,4.7,0.5,5.9c0.9,0.3,2,0.4,3.3,0.4c2.3,0,4.1-0.7,5.4-2.2c1.3-1.5,2-3.6,2-6.4
		c0-2.8-0.7-4.9-2-6.5c-1.3-1.5-3.2-2.3-5.8-2.3C19.7,70.4,18.6,70.6,17.9,71L17.9,71z M17.2,88.9c0.2,0,0.3,0,0.4,0
		c1.6,0.2,3,0.2,4.2,0.2c2.7,0,4.8-0.9,6.3-2.6c1.6-1.8,2.3-4.3,2.3-7.5c0-2.1-0.3-3.9-1-5.2c-0.7-1.4-1.6-2.5-2.9-3.4
		c-1.3-0.8-2.9-1.3-4.7-1.3c-0.4,0-1.1,0-2.1,0.1c-0.7,0.1-1.9,0.1-3.6,0.2v19.5H17.2L17.2,88.9z M51.4,78.4
		c0.8-1.3,1.2-2.7,1.2-4.2c0-1.4-0.5-2.8-1.4-4.2c2.1,0.9,3.2,2.3,3.2,4.3C54.4,76.2,53.4,77.6,51.4,78.4L51.4,78.4z M40.1,69.3
		v19.5h-0.8c-0.3,0-0.8,0-1.5,0.1c-0.6,0.1-1.2,0.1-2,0.1v-0.3c0.8-0.1,1.4-0.5,2-1.2c0.5-0.7,0.8-2,0.8-4V74c0-2.7-0.9-4.2-2.7-4.6
		v-0.3C36.7,69.2,38.1,69.3,40.1,69.3L40.1,69.3z M43,74.4v4c0.7,0.2,1.5,0.3,2.4,0.3c2.8,0,4.2-1.4,4.2-4.4c0-2.7-1.4-4.1-4.1-4.1
		c-0.9,0-1.6,0.2-2.1,0.5C43.1,71.3,43,72.5,43,74.4L43,74.4z M42,88.9c1,0,2.2,0.1,3.7,0.2v-0.3c-1.8-0.3-2.7-1.9-2.7-4.8v-4.4
		c0.7,0.2,1.5,0.6,2.2,1.2c0.7,0.6,1.8,1.6,3.3,3.2c1,1.1,1.9,2,2.6,2.7c0.7,0.7,1.3,1.2,1.8,1.5c0.9,0.6,1.9,0.9,3.1,0.9
		c0.4,0,0.8-0.1,1.2-0.2v-0.2c-0.9,0-1.8-0.4-2.8-1.1c-1-0.8-2.3-2-3.9-3.7c-2.3-2.4-4.1-3.8-5.5-4.2c2.2,0,4.4,1.2,6.7,3.6
		c1.9,2,3.4,3.3,4.3,3.9c1,0.7,2,1.1,3,1.1c0.9,0,1.6-0.3,2.1-1l-0.1-0.3c-0.3,0.2-0.6,0.3-0.9,0.3c-1.5,0-3.5-1.2-5.9-3.7
		c-1.6-1.6-2.8-2.7-3.5-3.2c-0.7-0.5-1.6-0.8-2.7-1c2.2-0.7,3.2-2.4,3.2-4.9c0-1.5-0.4-2.8-1.2-3.8c-0.8-1-2.1-1.6-3.8-1.6
		c-0.6,0-1.4,0-2.3,0.2c-0.8,0.1-1.6,0.1-2.4,0.1v19.5H42L42,88.9z M78.2,87c1.4-1.8,2-4.6,2-8.3c0-3.3-0.7-5.8-2-7.6
		c2.5,1.5,3.8,4.1,3.8,7.8C82.1,82.5,80.8,85.2,78.2,87L78.2,87z M63.3,71.1c-1.4,2.1-2,4.8-2,8.1c0,3,0.7,5.5,2,7.7
		c-2.5-1.6-3.8-4.3-3.8-7.9C59.5,75.2,60.7,72.6,63.3,71.1L63.3,71.1z M77.2,79c0-5.9-2.1-8.9-6.4-8.9c-4.2,0-6.3,3-6.3,9.1
		c0,5.7,2.1,8.6,6.4,8.6C75,87.8,77.2,84.9,77.2,79L77.2,79z M78.9,79c0-3.4-0.7-6-2.2-7.7c-1.5-1.8-3.5-2.7-6-2.7
		c-2.5,0-4.5,0.9-5.9,2.7c-1.4,1.8-2.2,4.4-2.2,7.7c0,3.2,0.7,5.8,2.1,7.6c1.4,1.8,3.4,2.8,6,2.8c1.6,0,3-0.4,4.3-1.1
		c1.2-0.7,2.2-1.9,2.9-3.5C78.6,83.2,78.9,81.3,78.9,79L78.9,79z M99.1,88.4c1.1-1.2,1.7-2.7,1.7-4.6c0-2-0.6-3.6-1.8-4.9
		c2.3,0.9,3.5,2.4,3.5,4.7c0,1.1-0.3,2.1-1,3C100.9,87.5,100,88.1,99.1,88.4L99.1,88.4z M98.1,77.9c0.8-1,1.1-2.2,1.1-3.5
		c0-1.1-0.2-2-0.6-2.9c-0.4-0.9-0.9-1.5-1.5-1.8c1.2,0.3,2.2,0.8,2.8,1.6c0.7,0.8,1,1.7,1,2.7c0,0.9-0.3,1.7-0.8,2.5
		C99.6,77.1,98.9,77.6,98.1,77.9L98.1,77.9z M88.2,69.3v19.5c-1.1,0-2.4,0.1-3.9,0.2v-0.3c1.6-0.4,2.4-2.1,2.4-5v-9.7
		c0-2.6-0.8-4.1-2.4-4.6v-0.3C85.6,69.2,86.9,69.3,88.2,69.3L88.2,69.3z M93,79.4h-1.9v3.3c0,2.3,0.3,3.8,0.8,4.4
		c0.4,0.3,1.1,0.5,1.9,0.5c1.4,0,2.5-0.4,3.1-1.3c0.6-0.8,0.9-1.8,0.9-2.9c0-0.9-0.2-1.7-0.6-2.3c-0.4-0.7-0.9-1.1-1.5-1.4
		C95.1,79.6,94.2,79.4,93,79.4L93,79.4z M91.1,74.4v3.7h1.4c1.2,0,2.1-0.3,2.7-1c0.6-0.6,1-1.6,1-2.8c0-1.3-0.3-2.2-1-2.9
		c-0.7-0.6-1.5-1-2.5-1c-0.5,0-1,0.1-1.3,0.4C91.2,71.6,91.1,72.7,91.1,74.4L91.1,74.4z M89.6,88.9c0.4,0,1.1,0,1.8,0.1
		c0.8,0.1,1.6,0.2,2.4,0.2c2,0,3.4-0.6,4.3-1.6c0.9-1.1,1.3-2.3,1.3-3.8c0-2.9-1.3-4.6-4-5.2c1.7-0.8,2.5-2.2,2.5-4.1
		c0-1.5-0.5-2.8-1.4-3.8c-0.9-1-2.2-1.5-3.7-1.5l-3.2,0.3V88.9L89.6,88.9z M123.4,87c1.3-1.8,2-4.6,2-8.3c0-3.3-0.7-5.8-2-7.6
		c2.5,1.5,3.8,4.1,3.8,7.8C127.2,82.5,125.9,85.2,123.4,87L123.4,87z M108.4,71.1c-1.4,2.1-2,4.8-2,8.1c0,3,0.7,5.5,2,7.7
		c-2.5-1.6-3.7-4.3-3.7-7.9C104.6,75.2,105.9,72.6,108.4,71.1L108.4,71.1z M122.3,79c0-5.9-2.1-8.9-6.4-8.9c-4.2,0-6.3,3-6.3,9.1
		c0,5.7,2.1,8.6,6.4,8.6C120.2,87.8,122.3,84.9,122.3,79L122.3,79z M124,79c0-3.4-0.7-6-2.2-7.7c-1.5-1.8-3.5-2.7-6-2.7
		c-2.5,0-4.5,0.9-5.9,2.7c-1.4,1.8-2.2,4.4-2.2,7.7c0,3.2,0.7,5.8,2.1,7.6c1.4,1.8,3.4,2.8,6,2.8c1.6,0,3-0.4,4.2-1.1
		c1.2-0.7,2.2-1.9,2.9-3.5C123.7,83.2,124,81.3,124,79L124,79z M140.6,88.9h-0.5V69.3h6.7c1.2,0,2.4-0.1,3.6-0.2
		c0,0.2,0,0.7-0.1,1.3c0,0.6-0.1,1.3-0.1,2.1c0,0.5,0,1.1-0.1,1.7h-0.4c0-1-0.3-1.9-0.8-2.5c-0.5-0.7-1.5-1-3.1-1h-4.2v13.3
		c0,1.5,0.2,2.7,0.7,3.4c0.4,0.8,1.1,1.2,2,1.4v0.3C142.1,88.9,140.9,88.9,140.6,88.9L140.6,88.9z M132.6,69.3h6.1v19.5h-0.6
		c-0.8,0-2,0.1-3.6,0.2v-0.3c1-0.3,1.7-0.8,2.1-1.6c0.4-0.8,0.6-2.1,0.6-3.9V70.6h-4.7c-1.2,0-2,0.2-2.5,0.7
		c-0.5,0.5-0.9,1.4-1.2,2.8h-0.4c0-0.2,0-0.3,0-0.5c0-0.2,0-0.6,0.1-0.9c0.1-1.3,0.2-2.5,0.2-3.6c0.7,0.1,1.5,0.1,2.5,0.2
		L132.6,69.3z"/>
</g>
</svg>
