<svg width="115" height="56" viewBox="0 0 115 56" fill="none" xmlns="http://www.w3.org/2000/svg">
<path fill-rule="evenodd" clip-rule="evenodd" d="M111.659 3.36979C111.659 6.39075 111.659 49.3523 111.659 52.4024C108.638 52.4024 65.6478 52.4024 62.6269 52.4024C62.6269 49.3814 62.6269 6.4198 62.6269 3.36979C65.6478 3.36979 108.638 3.36979 111.659 3.36979ZM115 55.6557V0.0292969H113.344H59.3154V55.6557H115Z" fill="#171796"/>
<path fill-rule="evenodd" clip-rule="evenodd" d="M111.747 3.28223C111.747 6.33224 111.747 49.4391 111.747 52.4891C108.697 52.4891 65.5899 52.4891 62.5399 52.4891C62.5399 49.4391 62.5399 6.33224 62.5399 3.28223C65.5608 3.28223 108.697 3.28223 111.747 3.28223Z" fill="white"/>
<path fill-rule="evenodd" clip-rule="evenodd" d="M80.7818 30.5292C80.6075 30.3259 80.4913 30.0935 80.4042 29.8901C80.6075 31.4587 80.6656 32.5044 81.508 33.5211C81.508 33.5211 82.0308 32.853 81.6823 31.1973C81.537 31.1682 81.3918 31.0811 81.2175 30.9939C81.2175 30.9939 81.4208 31.662 81.2756 32.3301C81.3047 32.3301 81.0142 32.0978 80.7818 30.5292Z" fill="#171796"/>
<path fill-rule="evenodd" clip-rule="evenodd" d="M79.3294 30.3842C79.2422 30.268 79.0389 29.9775 78.9227 29.8032C78.8646 30.7037 78.6032 33.0856 79.4165 33.8409C79.4165 33.8409 79.9684 33.4342 80.1717 29.9775C80.0556 30.1808 79.8522 30.3842 79.7651 30.5004C79.7651 30.5004 79.9103 31.6042 79.5036 32.3885C79.4746 32.3304 79.097 32.0399 79.3294 30.3842Z" fill="#171796"/>
<path fill-rule="evenodd" clip-rule="evenodd" d="M77.4413 32.1852C78.1094 31.3719 78.3128 28.9609 78.3128 28.9609C78.3999 28.9028 78.487 28.8447 78.6032 28.7576C78.6323 28.7285 78.6904 28.6995 78.7194 28.6704C78.7194 28.7576 78.7194 28.8447 78.7194 28.9318C78.6323 30.3842 78.5161 31.8657 78.0513 32.6209C77.6156 33.3471 76.8023 33.7247 76.8023 33.7247C76.047 32.3595 76.9475 30.5295 77.7318 29.2804C77.8189 29.2514 77.9351 29.1933 78.0223 29.1642C77.7318 30.1518 77.2089 31.3138 77.4413 32.1852Z" fill="#171796"/>
<path fill-rule="evenodd" clip-rule="evenodd" d="M75.5532 28.0306C75.5532 28.1759 75.5822 28.3211 75.5822 28.3792C75.5822 28.4082 75.6113 28.4373 75.6113 28.4663C74.9722 29.1054 74.5075 29.6864 73.5489 31.0225C72.5903 32.3297 71.1089 32.3878 71.1089 32.3878C71.2541 31.313 71.5446 30.4706 72.3579 29.5702C73.1713 28.6697 74.188 27.8273 74.9432 27.2754C75.1465 27.3625 75.3789 27.4206 75.6984 27.3916C75.7275 27.3916 75.7565 27.3916 75.7856 27.3916C75.6984 27.5368 75.6113 27.653 75.5822 27.7692C75.0013 28.0887 73.3456 28.9311 72.6775 30.2964C72.6775 30.2964 73.7232 29.9478 75.5532 28.0306Z" fill="#171796"/>
<path fill-rule="evenodd" clip-rule="evenodd" d="M74.3622 26.6948L74.4203 26.5786C74.4494 26.5495 74.4494 26.5205 74.4784 26.4624C73.8684 26.6948 71.6608 27.5372 70.9346 27.9148C70.2084 28.2924 69.1917 29.1348 68.6398 30.8196C68.6398 30.8196 70.1213 30.9648 71.3413 29.9481C72.5613 28.9315 73.9846 27.5081 74.5946 27.0724C74.5365 27.0143 74.4784 26.9562 74.4494 26.9272C74.4494 26.9272 72.7937 28.4086 71.0508 29.0186C71.0508 29.0186 71.4284 28.3505 72.1256 27.8567C72.9679 27.2467 73.607 27.0434 74.3622 26.6948Z" fill="#171796"/>
<path fill-rule="evenodd" clip-rule="evenodd" d="M73.0841 25.6782C73.1132 25.6201 73.1422 25.562 73.1712 25.5039C72.4451 25.6491 70.615 25.8815 69.8308 26.1139C69.0174 26.3753 67.565 26.9563 66.6936 28.612C66.6936 28.612 67.9717 29.0187 70.3827 27.8858C72.7936 26.753 73.5489 26.5206 74.0136 26.4044C73.636 26.3753 73.3746 26.2592 73.2584 26.172C72.2998 26.6077 71.0217 27.1015 69.7436 27.1306C69.7436 27.1306 70.3827 26.6949 71.0217 26.4044C71.6898 26.1139 72.4741 25.8525 73.0841 25.6782Z" fill="#171796"/>
<path fill-rule="evenodd" clip-rule="evenodd" d="M73.1422 24.4877C73.3746 24.6039 73.5489 24.662 73.8684 24.6911C73.6941 24.8072 73.5489 24.9234 73.4037 25.1268C72.5613 25.3592 71.1089 25.6496 68.727 25.8239C66.3451 25.9982 65.067 25.5625 65.067 25.5625C65.9093 25.0687 67.2165 24.5458 68.117 24.3715C69.0174 24.1972 71.3703 24.2263 72.416 24.0811C72.416 24.0811 72.5613 24.1972 72.7646 24.3134C71.8932 24.4006 70.0341 24.4877 69.0755 24.9525C69.0755 24.9234 70.8184 25.1558 73.1422 24.4877Z" fill="#171796"/>
<path fill-rule="evenodd" clip-rule="evenodd" d="M72.9679 23.1225C73.0841 23.0353 73.2293 22.9772 73.4036 22.9191C72.1836 22.5415 70.5279 21.9606 68.0298 21.8153C66.1998 21.6991 64.8636 21.8153 64.1955 21.9896C64.1955 21.9896 65.8512 23.1806 67.7684 23.5872C69.6855 23.9939 71.2251 23.7325 72.3579 23.7325C72.4451 23.6163 72.5032 23.5001 72.6484 23.3839C71.3122 23.3839 69.1336 23.0353 68.3203 22.7739C68.3493 22.7449 70.3246 22.1929 72.9679 23.1225Z" fill="#171796"/>
<path fill-rule="evenodd" clip-rule="evenodd" d="M72.9679 21.6987C72.9679 21.7278 73.1131 22.4249 73.8974 22.8026C72.2127 22.0473 68.8431 21.6406 67.0712 20.8854C64.6312 19.8687 64.1955 18.6197 64.1955 18.6197C66.2869 18.5616 68.0008 19.0844 69.3079 19.4911C70.8474 19.9559 73.1712 20.8273 73.9846 21.2049C73.6651 21.2049 73.3455 21.3211 73.0551 21.4954C72.1255 21.1178 71.3412 20.7983 70.3246 20.5078C69.3369 20.2173 68.6398 20.0721 67.7974 20.043C67.7974 20.043 68.6979 20.7402 70.4408 21.234C71.6317 21.5245 72.2998 21.6116 72.9679 21.6987Z" fill="#171796"/>
<path fill-rule="evenodd" clip-rule="evenodd" d="M72.9678 20.0143C73.0259 20.1304 73.113 20.2466 73.2002 20.3628C70.5278 19.8981 67.5649 17.8938 66.6354 16.6157C65.7349 15.3666 65.9963 13.4785 65.9963 13.4785C66.8678 13.6528 68.814 15.3085 69.3078 15.8023C69.8016 16.2961 71.3121 17.7776 72.3578 18.5909L72.6483 19.3752C71.7478 18.649 70.8473 17.9228 70.2083 17.429C69.6854 17.0514 68.7559 16.2961 67.6811 16.0347C67.6811 16.0347 68.2911 17.0514 69.1916 17.7776C70.1792 18.5619 70.8473 18.9104 71.1959 19.0847C71.864 19.4914 72.2416 19.6657 72.9678 20.0143Z" fill="#171796"/>
<path fill-rule="evenodd" clip-rule="evenodd" d="M73.4908 16.6441C73.4908 16.7603 73.4908 16.9055 73.4908 17.0217V17.1379C72.8518 16.2955 72.1837 15.366 71.4284 14.4365C70.7603 13.6231 70.2375 13.2455 69.6565 12.8679C69.8889 14.0879 70.9346 15.4532 71.4284 15.9179C71.9513 16.3827 72.8518 17.196 73.5489 17.6898L73.578 17.777C73.6361 18.0094 73.7232 18.2127 73.8394 18.416C74.0137 18.7065 74.217 18.997 74.4784 19.2875C74.2751 19.1713 74.0137 19.0841 73.7813 18.9679L73.5489 18.8808C71.5737 17.8351 69.5984 15.6565 68.8141 14.146C68.0298 12.6355 68.3494 10.8636 68.5527 9.93408C69.4532 10.6893 70.7603 12.1998 71.3122 13.0131C72.0094 14.0298 72.9099 15.4241 73.4618 16.586V16.6441H73.4908Z" fill="#171796"/>
<path fill-rule="evenodd" clip-rule="evenodd" d="M76.0179 28.6118C75.2046 29.4251 73.4908 31.2551 73.636 33.2594C73.636 33.2594 75.2336 32.7656 75.9017 31.5747C76.5698 30.4127 76.9765 29.6575 77.2379 29.3961C77.0636 29.4251 76.8893 29.4251 76.7151 29.3961L76.5698 29.367C76.1632 30.0932 75.3498 31.3132 74.6236 31.7489C74.6236 31.7489 74.4493 30.7613 76.5698 28.7861C76.5989 28.6989 76.6279 28.6118 76.7151 28.4956C76.5117 28.5827 76.3084 28.6408 76.0179 28.6118Z" fill="#171796"/>
<path fill-rule="evenodd" clip-rule="evenodd" d="M93.4756 30.5292C93.6499 30.3259 93.766 30.0935 93.8532 29.8901C93.6499 31.4587 93.5918 32.5044 92.7494 33.5211C92.7494 33.5211 92.2265 32.853 92.5751 31.1973C92.7203 31.1682 92.8656 31.0811 93.0398 30.9939C93.0398 30.9939 92.8365 31.662 92.9818 32.3301C92.9527 32.3301 93.2432 32.0978 93.4756 30.5292Z" fill="#171796"/>
<path fill-rule="evenodd" clip-rule="evenodd" d="M94.928 30.3842C95.0152 30.268 95.2185 29.9775 95.3347 29.8032C95.3928 30.7037 95.6542 33.0856 94.8409 33.8409C94.8409 33.8409 94.289 33.4342 94.1147 29.9775C94.2309 30.1808 94.4342 30.3842 94.5214 30.5004C94.5214 30.5004 94.3761 31.6042 94.7828 32.3885C94.7828 32.3304 95.1604 32.0399 94.928 30.3842Z" fill="#171796"/>
<path fill-rule="evenodd" clip-rule="evenodd" d="M96.8161 32.1852C96.148 31.3719 95.9447 28.9609 95.9447 28.9609C95.8575 28.9028 95.7704 28.8447 95.6542 28.7576C95.6252 28.7285 95.5671 28.6995 95.538 28.6704C95.538 28.7576 95.538 28.8447 95.538 28.9318C95.6252 30.3842 95.7414 31.8657 96.2061 32.6209C96.6418 33.3471 97.4552 33.7247 97.4552 33.7247C98.2104 32.3595 97.3099 30.5295 96.5256 29.2804C96.4385 29.2514 96.3223 29.1933 96.2352 29.1642C96.5256 30.1518 97.0485 31.3138 96.8161 32.1852Z" fill="#171796"/>
<path fill-rule="evenodd" clip-rule="evenodd" d="M98.7332 28.0306C98.7332 28.1759 98.7042 28.3211 98.7042 28.3792C98.7042 28.4082 98.6751 28.4373 98.6751 28.4663C99.3142 29.1054 99.7789 29.6864 100.738 31.0225C101.696 32.3297 103.178 32.3878 103.178 32.3878C103.032 31.313 102.742 30.4706 101.928 29.5702C101.115 28.6697 100.098 27.8273 99.3432 27.2754C99.1399 27.3625 98.9075 27.4206 98.588 27.3916C98.5589 27.3916 98.5299 27.3916 98.5009 27.3916C98.588 27.5368 98.6751 27.653 98.7042 27.7692C99.2851 28.0887 100.941 28.9311 101.609 30.2964C101.58 30.2964 100.534 29.9478 98.7332 28.0306Z" fill="#171796"/>
<path fill-rule="evenodd" clip-rule="evenodd" d="M99.9242 26.6948L99.8661 26.5786C99.8371 26.5495 99.8371 26.5205 99.808 26.4624C100.418 26.6948 102.626 27.5372 103.323 27.9148C104.049 28.2924 105.066 29.1348 105.618 30.8196C105.618 30.8196 104.136 30.9648 102.916 29.9481C101.696 28.9315 100.273 27.5081 99.6628 27.0724C99.7209 27.0143 99.779 26.9562 99.808 26.9272C99.808 26.9272 101.464 28.4086 103.207 29.0186C103.207 29.0186 102.829 28.3505 102.132 27.8567C101.289 27.2467 100.65 27.0434 99.9242 26.6948Z" fill="#171796"/>
<path fill-rule="evenodd" clip-rule="evenodd" d="M101.173 25.6782C101.144 25.6201 101.115 25.562 101.086 25.5039C101.812 25.6491 103.642 25.8815 104.427 26.1139C105.24 26.3753 106.692 26.9563 107.564 28.612C107.564 28.612 106.286 29.0187 103.875 27.8858C101.464 26.753 100.709 26.5206 100.244 26.4044C100.621 26.3753 100.883 26.2592 100.999 26.172C101.958 26.6077 103.236 27.1015 104.514 27.1306C104.514 27.1306 103.875 26.6949 103.236 26.4044C102.568 26.1139 101.783 25.8525 101.173 25.6782Z" fill="#171796"/>
<path fill-rule="evenodd" clip-rule="evenodd" d="M101.115 24.4877C100.883 24.6039 100.708 24.662 100.389 24.6911C100.563 24.8072 100.708 24.9234 100.854 25.1268C101.696 25.3592 103.148 25.6496 105.53 25.8239C107.912 25.9982 109.19 25.5625 109.19 25.5625C108.348 25.0687 107.041 24.5458 106.14 24.3715C105.24 24.1972 102.887 24.2263 101.841 24.0811C101.841 24.0811 101.696 24.1972 101.493 24.3134C102.364 24.4006 104.223 24.4877 105.182 24.9525C105.211 24.9234 103.439 25.1558 101.115 24.4877Z" fill="#171796"/>
<path fill-rule="evenodd" clip-rule="evenodd" d="M101.289 23.1225C101.173 23.0353 101.028 22.9772 100.854 22.9191C102.074 22.5415 103.729 21.9606 106.228 21.8153C108.058 21.6991 109.394 21.8153 110.062 21.9896C110.062 21.9896 108.406 23.1806 106.489 23.5872C104.572 23.9939 103.032 23.7325 101.899 23.7325C101.812 23.6163 101.754 23.5001 101.609 23.3839C102.945 23.3839 105.124 23.0353 105.937 22.7739C105.908 22.7449 103.962 22.1929 101.289 23.1225Z" fill="#171796"/>
<path fill-rule="evenodd" clip-rule="evenodd" d="M101.289 21.6987C101.289 21.7278 101.144 22.4249 100.36 22.8026C102.045 22.0473 105.414 21.6406 107.186 20.8854C109.626 19.8687 110.062 18.6197 110.062 18.6197C107.97 18.5616 106.257 19.0844 104.949 19.4911C103.41 19.9559 101.086 20.8273 100.273 21.2049C100.592 21.2049 100.912 21.3211 101.202 21.4954C102.132 21.1178 102.916 20.7983 103.962 20.5078C104.949 20.2173 105.647 20.0721 106.489 20.043C106.489 20.043 105.588 20.7402 103.846 21.234C102.626 21.5245 101.987 21.6116 101.289 21.6987Z" fill="#171796"/>
<path fill-rule="evenodd" clip-rule="evenodd" d="M101.289 20.0143C101.231 20.1304 101.144 20.2466 101.057 20.3628C103.729 19.8981 106.692 17.8938 107.593 16.6157C108.493 15.3666 108.232 13.4785 108.232 13.4785C107.36 13.6528 105.414 15.3085 104.92 15.8023C104.427 16.2961 102.916 17.7776 101.87 18.5909L101.58 19.3752C102.48 18.649 103.381 17.9228 104.02 17.429C104.543 17.0514 105.472 16.2961 106.547 16.0347C106.547 16.0347 105.937 17.0514 105.037 17.7776C104.049 18.5619 103.381 18.9104 103.032 19.0847C102.393 19.4914 102.045 19.6657 101.289 20.0143Z" fill="#171796"/>
<path fill-rule="evenodd" clip-rule="evenodd" d="M100.767 16.6441C100.767 16.7603 100.767 16.9055 100.767 17.0217V17.1379C101.406 16.2955 102.074 15.366 102.829 14.4365C103.497 13.6231 104.02 13.2455 104.601 12.8679C104.368 14.0879 103.323 15.4532 102.829 15.9179C102.306 16.3827 101.406 17.196 100.708 17.6898L100.679 17.777C100.621 18.0094 100.534 18.2127 100.418 18.416C100.244 18.7065 100.04 18.997 99.7789 19.2875C99.9823 19.1713 100.215 19.0841 100.476 18.9679L100.708 18.8808C102.684 17.8351 104.659 15.6565 105.443 14.146C106.228 12.6355 105.908 10.8636 105.705 9.93408C104.804 10.6893 103.497 12.1998 102.945 13.0131C102.248 14.0298 101.348 15.4241 100.796 16.586V16.6441H100.767Z" fill="#171796"/>
<path fill-rule="evenodd" clip-rule="evenodd" d="M98.2394 28.6118C99.0527 29.4251 100.796 31.2551 100.621 33.2594C100.621 33.2594 99.0237 32.7656 98.3556 31.5747C97.6875 30.4127 97.2808 29.6575 97.0194 29.3961C97.1937 29.4251 97.368 29.4251 97.5423 29.3961L97.6875 29.367C98.0942 30.0932 98.9075 31.3132 99.6337 31.7489C99.6337 31.7489 99.808 30.7613 97.6875 28.7861C97.6585 28.6989 97.6004 28.6118 97.5423 28.4956C97.7456 28.5827 97.978 28.6408 98.2394 28.6118Z" fill="#171796"/>
<path fill-rule="evenodd" clip-rule="evenodd" d="M85.8941 12.6355C85.8941 12.4902 86.446 12.374 87.1432 12.374C87.8403 12.374 88.3922 12.4902 88.3922 12.6355C88.3922 12.7807 87.8403 12.8969 87.1432 12.8969C86.446 12.8969 85.8941 12.7807 85.8941 12.6355Z" fill="#171796"/>
<path fill-rule="evenodd" clip-rule="evenodd" d="M81.6532 13.9138C81.6532 13.8267 82.0018 13.7686 82.4665 13.7686C82.9022 13.7686 83.2799 13.8267 83.2799 13.9138C83.2799 14.0009 82.9313 14.059 82.4665 14.059C82.0018 14.059 81.6532 14.0009 81.6532 13.9138Z" fill="#171796"/>
<path fill-rule="evenodd" clip-rule="evenodd" d="M87.3757 13.2168C87.3757 13.362 87.2595 13.4491 87.1433 13.4491C86.998 13.4491 86.9109 13.333 86.9109 13.2168C86.9109 13.0715 87.0271 12.9844 87.1433 12.9844C87.2595 12.9844 87.3757 13.1006 87.3757 13.2168Z" fill="#171796"/>
<path fill-rule="evenodd" clip-rule="evenodd" d="M85.6619 12.2581C85.2552 11.2705 84.9647 10.5443 84.9938 10.2829C84.9938 10.1376 85.168 10.0214 85.3423 9.96334C85.5166 9.90524 85.6619 9.90525 85.778 9.99239C85.9814 10.1667 86.1847 11.5029 86.2719 12.0548C86.0395 12.1129 85.9233 12.1419 85.6619 12.2581Z" fill="#171796"/>
<path fill-rule="evenodd" clip-rule="evenodd" d="M86.5042 12.055C86.6204 12.055 86.7075 12.0259 86.8237 12.0259C86.7656 11.5031 86.5623 10.6026 86.4751 10.254C86.3589 9.90546 86.2428 9.64403 86.0104 9.58594C86.0104 9.58594 86.1847 10.0797 86.2718 10.5736C86.3589 11.0964 86.417 11.5612 86.5042 12.055Z" fill="#171796"/>
<path fill-rule="evenodd" clip-rule="evenodd" d="M85.9232 13.9136C85.2842 14.2912 84.558 14.2331 84.558 14.2331C84.7032 13.9716 84.8194 13.7393 85.2261 13.4488C85.6327 13.1583 86.2718 13.1002 86.5332 13.1293C86.4751 13.3035 86.2137 13.7102 85.9232 13.9136Z" fill="#171796"/>
<path fill-rule="evenodd" clip-rule="evenodd" d="M81.2756 14.4076C81.3047 14.7852 81.3918 15.1628 81.537 15.4243C81.537 15.4243 81.0723 15.0757 80.9561 14.7852C80.8108 14.4657 80.8109 14.2624 81.2756 14.4076Z" fill="#171796"/>
<path fill-rule="evenodd" clip-rule="evenodd" d="M81.3627 15.5987C81.6822 15.7439 81.9437 16.0925 81.9437 16.0925C81.4789 16.2087 81.2465 16.3249 81.2465 16.3249C80.346 15.6858 79.5908 16.3249 79.5908 16.3249C79.097 16.0344 79.0098 15.3663 79.2422 14.9887C79.4746 14.6401 80.0556 14.6982 80.317 14.7563C80.4913 15.3082 81.0722 15.4825 81.3627 15.5987Z" fill="#171796"/>
<path fill-rule="evenodd" clip-rule="evenodd" d="M82.0598 16.2085C82.0598 16.2085 82.3794 16.6442 82.6408 16.8475C82.6408 16.8475 81.4208 16.8476 81.1013 17.8933C81.1013 17.8933 80.6655 17.2542 80.9851 16.8185C81.3046 16.3537 81.6241 16.2956 82.0598 16.2085Z" fill="#171796"/>
<path fill-rule="evenodd" clip-rule="evenodd" d="M82.4666 12.1128C82.5828 12.1128 82.8152 12.1709 82.8152 12.3452C82.8152 12.5195 82.5247 12.9842 82.4376 13.1876C82.3504 12.9842 82.0599 12.5195 82.0599 12.3452C82.0599 12.1709 82.2923 12.1128 82.4085 12.1128H82.4666Z" fill="#171796"/>
<path fill-rule="evenodd" clip-rule="evenodd" d="M82.2342 13.565C82.1761 13.3035 82.0889 12.6064 81.9146 12.4612C81.7694 12.3159 81.537 12.3159 81.4208 12.3159C81.3046 12.3159 81.1884 12.4321 81.2465 12.6064C81.3046 12.7516 81.7984 13.5069 81.8565 13.6231C81.9727 13.594 81.9437 13.594 82.2342 13.565Z" fill="#171796"/>
<path fill-rule="evenodd" clip-rule="evenodd" d="M82.6699 13.565C82.728 13.3035 82.8441 12.6064 82.9894 12.4612C83.1346 12.3159 83.367 12.3159 83.4832 12.3159C83.5994 12.3159 83.7156 12.4321 83.6575 12.6064C83.5994 12.7516 83.1056 13.5069 83.0475 13.6231C82.9313 13.594 82.9603 13.594 82.6699 13.565Z" fill="#171796"/>
<path fill-rule="evenodd" clip-rule="evenodd" d="M82.9894 11.1838H82.6118V10.748H82.2923V11.1838H81.8856V11.4742H82.2923V11.9971H82.6118V11.4742H82.9894V11.1838Z" fill="#171796"/>
<path fill-rule="evenodd" clip-rule="evenodd" d="M78.2256 14.1751C78.2256 14.088 78.2256 14.0009 78.2546 13.9137C78.2837 13.7104 78.2837 13.5071 78.2546 13.3618C77.9641 13.478 77.7898 13.5361 77.3832 14.1751C77.3832 14.2042 77.9932 13.8266 78.2256 14.1751Z" fill="#171796"/>
<path fill-rule="evenodd" clip-rule="evenodd" d="M78.7484 15.1918C78.7484 15.0465 78.8646 14.5527 78.9808 14.2042C79.1261 13.7684 79.0389 13.1584 78.8646 12.7808C78.6904 12.4032 78.5742 12.0837 78.6032 11.7061C78.6032 11.7061 78.2256 11.8222 78.0223 11.9675C77.9932 12.4032 78.2546 12.8389 78.3708 13.1004C78.5161 13.3908 78.487 13.7684 78.458 14.0008C78.3999 14.3494 78.487 14.7851 78.7484 15.1918Z" fill="#171796"/>
<path fill-rule="evenodd" clip-rule="evenodd" d="M78.8065 11.8514C78.8065 11.7933 78.8065 11.6772 78.8065 11.6191C78.8065 11.6191 79.3875 11.0381 79.8813 10.951C80.2008 10.8929 80.3751 11.0381 80.4622 11.0962C80.4622 11.0962 80.288 11.0672 80.0265 11.2995C79.7651 11.5029 79.4456 11.7643 79.1841 11.8224C78.9808 11.8805 78.9227 11.8514 78.8065 11.8514Z" fill="#171796"/>
<path fill-rule="evenodd" clip-rule="evenodd" d="M80.5203 11.125C80.7527 11.3574 80.927 11.5607 80.927 11.7641C80.927 11.9674 80.6946 12.4902 80.5493 12.6936C80.4332 12.8969 80.2298 13.1583 80.2589 13.4779C80.2589 13.6231 80.3751 13.7974 80.5203 13.9426C80.5203 13.9426 79.7941 13.7683 79.707 13.3326C79.6198 12.926 79.7941 12.6645 79.9103 12.4321C80.0265 12.2288 80.346 11.735 80.4332 11.5607C80.5203 11.3864 80.5493 11.2121 80.5203 11.125Z" fill="#171796"/>
<path fill-rule="evenodd" clip-rule="evenodd" d="M92.6332 13.9138C92.6332 13.8267 92.2846 13.7686 91.8199 13.7686C91.3842 13.7686 91.0065 13.8267 91.0065 13.9138C91.0065 14.0009 91.3551 14.059 91.8199 14.059C92.2556 14.059 92.6332 14.0009 92.6332 13.9138Z" fill="#171796"/>
<path fill-rule="evenodd" clip-rule="evenodd" d="M87.1432 11.2707C87.2013 10.9221 87.608 10.1378 87.608 9.81828C87.608 9.55685 87.4046 9.35352 87.1432 9.35352C86.8818 9.35352 86.6784 9.55685 86.6784 9.81828C86.6494 10.1378 87.056 10.893 87.1432 11.2707Z" fill="#171796"/>
<path fill-rule="evenodd" clip-rule="evenodd" d="M88.5956 12.2581C89.0023 11.2705 89.2927 10.5443 89.2637 10.2829C89.2637 10.1376 89.0894 10.0214 88.9151 9.96334C88.7408 9.90524 88.5956 9.90525 88.4794 9.99239C88.2761 10.1667 88.0727 11.5029 87.9856 12.0548C88.218 12.1129 88.3342 12.1419 88.5956 12.2581Z" fill="#171796"/>
<path fill-rule="evenodd" clip-rule="evenodd" d="M87.7822 12.055C87.666 12.055 87.5789 12.0259 87.4627 12.0259C87.5208 11.5031 87.7241 10.6026 87.8113 10.254C87.9275 9.90546 88.0437 9.64403 88.276 9.58594C88.276 9.58594 88.1018 10.0797 88.0146 10.5736C87.8984 11.0964 87.8403 11.5612 87.7822 12.055Z" fill="#171796"/>
<path fill-rule="evenodd" clip-rule="evenodd" d="M87.7242 13.1293C87.9856 13.1002 88.6247 13.1583 89.0313 13.4488C89.438 13.7393 89.5542 13.9716 89.6994 14.2331C89.6994 14.2331 88.9732 14.2912 88.3342 13.9136C88.0437 13.7102 87.7823 13.3035 87.7242 13.1293Z" fill="#171796"/>
<path fill-rule="evenodd" clip-rule="evenodd" d="M93.0109 14.4076C92.9818 14.7852 92.8947 15.1628 92.7495 15.4243C92.7495 15.4243 93.2142 15.0757 93.3304 14.7852C93.4466 14.4657 93.4756 14.2624 93.0109 14.4076Z" fill="#171796"/>
<path fill-rule="evenodd" clip-rule="evenodd" d="M93.9404 14.7856C94.2018 14.7275 94.7537 14.6694 95.0152 15.018C95.2766 15.3666 95.1604 16.0637 94.6666 16.3542C94.6666 16.3542 93.9113 15.7151 93.0109 16.3542C93.0109 16.3542 92.8075 16.209 92.3137 16.1218C92.3137 16.1218 92.6042 15.7732 92.8947 15.628C93.1852 15.4828 93.7661 15.3085 93.9404 14.7856Z" fill="#171796"/>
<path fill-rule="evenodd" clip-rule="evenodd" d="M92.1976 16.2085C92.1976 16.2085 91.8781 16.6442 91.6166 16.8475C91.6166 16.8475 92.8366 16.8476 93.1562 17.8933C93.1562 17.8933 93.5919 17.2542 93.2724 16.8185C92.9528 16.3537 92.6333 16.2956 92.1976 16.2085Z" fill="#171796"/>
<path fill-rule="evenodd" clip-rule="evenodd" d="M91.7909 12.1128C91.6747 12.1128 91.4423 12.1709 91.4423 12.3452C91.4423 12.5195 91.7328 12.9842 91.8199 13.1876C91.9071 12.9842 92.1976 12.5195 92.1976 12.3452C92.1976 12.1709 91.9652 12.1128 91.849 12.1128H91.7909Z" fill="#171796"/>
<path fill-rule="evenodd" clip-rule="evenodd" d="M92.0232 13.565C92.0813 13.3035 92.1975 12.6064 92.3427 12.4612C92.488 12.3159 92.7203 12.3159 92.8365 12.3159C92.9527 12.3159 93.0689 12.4321 93.0108 12.6064C92.9527 12.7516 92.4589 13.5069 92.4008 13.6231C92.3137 13.594 92.3137 13.594 92.0232 13.565Z" fill="#171796"/>
<path fill-rule="evenodd" clip-rule="evenodd" d="M91.5875 13.565C91.5294 13.3035 91.4422 12.6064 91.268 12.4612C91.1227 12.3159 90.8903 12.3159 90.7742 12.3159C90.658 12.3159 90.5418 12.4321 90.5999 12.6064C90.658 12.7516 91.1518 13.5069 91.2099 13.6231C91.3261 13.594 91.297 13.594 91.5875 13.565Z" fill="#171796"/>
<path fill-rule="evenodd" clip-rule="evenodd" d="M91.2679 11.1838H91.6456V10.748H91.9651V11.1838H92.3718V11.4742H91.9651V11.9971H91.6456V11.4742H91.2679V11.1838Z" fill="#171796"/>
<path fill-rule="evenodd" clip-rule="evenodd" d="M96.0608 14.1751C96.0608 14.088 96.0608 14.0009 96.0318 13.9137C96.0027 13.7104 96.0027 13.5071 96.0318 13.3618C96.3223 13.478 96.4966 13.5361 96.9032 14.1751C96.9032 14.2042 96.2642 13.8266 96.0608 14.1751Z" fill="#171796"/>
<path fill-rule="evenodd" clip-rule="evenodd" d="M95.509 15.1918C95.509 15.0465 95.3928 14.5527 95.2766 14.2042C95.1313 13.7684 95.2185 13.1584 95.3928 12.7808C95.5671 12.4032 95.6832 12.0837 95.6542 11.7061C95.6542 11.7061 96.0318 11.8222 96.2351 11.9675C96.2642 12.4032 96.0028 12.8389 95.8866 13.1004C95.7413 13.3908 95.7704 13.7684 95.7994 14.0008C95.8575 14.3494 95.7704 14.7851 95.509 15.1918Z" fill="#171796"/>
<path fill-rule="evenodd" clip-rule="evenodd" d="M95.4509 11.8514C95.4509 11.7933 95.4509 11.6772 95.4218 11.6191C95.4218 11.6191 94.8409 11.0381 94.3471 10.951C94.0275 10.8929 93.8533 11.0381 93.7661 11.0962C93.7661 11.0962 93.9404 11.0672 94.2018 11.2995C94.4633 11.5029 94.7828 11.7643 95.0442 11.8224C95.3056 11.8805 95.3347 11.8514 95.4509 11.8514Z" fill="#171796"/>
<path fill-rule="evenodd" clip-rule="evenodd" d="M93.737 11.125C93.5047 11.3574 93.3304 11.5607 93.3304 11.7641C93.3304 11.9674 93.5628 12.4902 93.708 12.6936C93.8242 12.8969 94.0275 13.1583 93.9985 13.4779C93.9985 13.6231 93.8823 13.7974 93.737 13.9426C93.737 13.9426 94.4632 13.7683 94.5504 13.3326C94.6375 12.926 94.4632 12.6645 94.3471 12.4321C94.2309 12.2288 93.9113 11.735 93.8242 11.5607C93.7661 11.3864 93.708 11.2121 93.737 11.125Z" fill="#171796"/>
<path fill-rule="evenodd" clip-rule="evenodd" d="M74.7398 33.84C75.0884 33.4623 75.6984 33.7819 76.3084 34.3338C76.9184 34.8857 77.296 35.4666 76.9474 35.8443C76.6279 36.1928 75.9888 35.9023 75.3788 35.3504C74.7688 34.7985 74.3622 34.2176 74.7398 33.84Z" fill="#171796"/>
<path fill-rule="evenodd" clip-rule="evenodd" d="M78.7194 42.3807C79.126 42.3807 79.5327 42.3517 79.9684 42.2936C80.7527 42.1774 81.5951 42.0031 82.4084 41.7126L82.118 41.335C81.3627 41.6255 80.6075 41.7417 79.8813 41.8579C79.4165 41.9159 78.9808 41.945 78.5741 41.945C78.5741 41.8578 78.6032 41.7707 78.6032 41.6836C78.6322 41.364 78.8065 40.8702 78.9808 40.4926C79.3294 39.7374 80.2008 37.7621 82.0018 37.4135C82.1761 37.3845 81.7984 36.9488 81.6532 36.9778C81.4789 37.0069 81.1594 37.2102 81.0141 37.2974C81.0141 37.2974 81.0141 36.8616 81.0141 36.8035C81.0141 36.7164 80.9561 36.6873 80.8689 36.6873C80.8108 36.6873 80.3751 36.6873 80.2299 36.8326C79.8232 37.2973 79.126 38.6045 78.7194 39.534C78.3127 40.4926 78.0513 40.7831 77.6446 40.6378C77.2379 40.4926 76.9765 40.0278 76.2503 40.1731C75.9889 40.2312 75.7275 40.4055 75.4951 40.6378C75.466 40.6669 75.437 40.725 75.4079 40.7831C75.1465 40.4926 75.0013 40.115 75.0013 39.7083C75.0013 38.8078 75.7565 38.0526 76.657 38.0526C77.5865 38.0526 78.3127 38.8078 78.3127 39.7083C78.3127 39.8245 78.2837 40.0278 78.2837 40.0278C78.3708 39.8826 78.6322 39.2435 78.6903 39.1274C78.4579 38.2269 77.6156 37.5588 76.657 37.5588C75.8146 37.5588 75.0884 38.0526 74.7398 38.7497C74.8851 37.9074 75.2917 37.1521 75.5822 36.8907C75.9308 36.5421 76.5408 36.455 76.5408 36.455C76.1341 36.5131 75.6403 36.2807 75.0303 35.7288C74.4784 35.2059 74.1879 34.7702 74.1879 34.3926C74.217 34.9154 74.217 35.2059 74.0717 35.6416C73.8684 36.2226 73.3165 37.2974 73.5198 38.4883C73.636 39.1564 74.1008 40.144 74.9141 40.9574C75.0594 41.1317 75.1465 41.364 75.1756 41.5093C75.1756 41.5674 75.1756 41.5964 75.1756 41.6545C75.3498 41.5383 75.9889 41.4221 76.1922 41.4221C76.3956 41.4221 76.8603 41.3059 77.0346 41.5674C77.1217 41.7126 77.2379 41.7417 77.4413 41.7998C77.6156 41.8578 77.6156 42.1483 77.8189 42.0321C78.0513 41.9159 78.3998 42.0031 78.487 42.0612C78.6322 42.1483 78.7194 42.2355 78.7194 42.3807Z" fill="#171796"/>
<path fill-rule="evenodd" clip-rule="evenodd" d="M78.3417 42.7583C78.1384 43.0488 77.877 43.165 77.5574 43.2231C77.0346 43.3102 76.2212 43.3393 75.5531 42.7293C75.3789 42.584 75.2627 42.3807 75.2336 42.1773C75.2046 42.0031 75.3788 41.8869 75.5241 41.8288C75.6693 41.7997 76.6279 41.6835 76.7441 41.7416C76.8603 41.7997 76.8893 41.8869 76.8893 42.0031C76.8893 42.1193 77.0055 42.0902 77.0927 42.0902C77.2089 42.0902 77.4122 42.1193 77.4703 42.2645C77.5284 42.4097 77.6736 42.4097 77.7317 42.3516C77.906 42.2645 78.6031 42.2935 78.3417 42.7583Z" fill="#171796"/>
<path fill-rule="evenodd" clip-rule="evenodd" d="M99.5466 33.84C99.1981 33.4623 98.5881 33.7819 97.9781 34.3338C97.368 34.8857 96.9904 35.4666 97.339 35.8443C97.6585 36.1928 98.2976 35.9023 98.9076 35.3504C99.5176 34.7985 99.8952 34.2176 99.5466 33.84Z" fill="#171796"/>
<path fill-rule="evenodd" clip-rule="evenodd" d="M95.5379 42.3807C95.1313 42.3807 94.7246 42.3517 94.2889 42.2936C93.5046 42.1774 92.6622 42.0031 91.8489 41.7126L92.1103 41.335C92.8656 41.6255 93.6208 41.7417 94.347 41.8579C94.8117 41.9159 95.2475 41.945 95.6832 41.945C95.6832 41.8578 95.6541 41.7707 95.6541 41.6836C95.6251 41.364 95.4508 40.8702 95.2765 40.4926C94.9279 39.7374 94.0565 37.7621 92.2556 37.4135C92.0813 37.3845 92.4589 36.9488 92.6041 36.9778C92.7784 37.0069 93.0979 37.2102 93.2432 37.2974C93.2432 37.2974 93.2432 36.8616 93.2432 36.8035C93.2432 36.7164 93.3013 36.6873 93.3884 36.6873C93.4465 36.6873 93.8822 36.6873 94.0275 36.8326C94.4341 37.2973 95.1313 38.6045 95.5379 39.534C95.9446 40.4926 96.206 40.7831 96.6127 40.6378C97.0194 40.4926 97.2808 40.0278 98.007 40.1731C98.2684 40.2312 98.5299 40.4055 98.7622 40.6378C98.7913 40.6669 98.8203 40.725 98.8494 40.7831C99.1108 40.4926 99.2561 40.115 99.2561 39.7083C99.2561 38.8078 98.5008 38.0526 97.6003 38.0526C96.6708 38.0526 95.9446 38.8078 95.9446 39.7083C95.9446 39.8245 95.9737 40.0278 95.9737 40.0278C95.8865 39.8826 95.6251 39.2435 95.567 39.1274C95.8284 38.2269 96.6418 37.5588 97.6003 37.5588C98.4427 37.5588 99.1689 38.0526 99.5175 38.7497C99.3722 37.9074 98.9656 37.1521 98.6751 36.8907C98.3265 36.5421 97.7165 36.455 97.7165 36.455C98.1232 36.5131 98.6461 36.2807 99.227 35.7288C99.7789 35.2059 100.069 34.7702 100.069 34.3926C100.04 34.9154 100.04 35.2059 100.186 35.6416C100.389 36.2226 100.941 37.2974 100.737 38.4883C100.621 39.1564 100.157 40.144 99.3432 40.9574C99.198 41.1317 99.1108 41.364 99.0818 41.5093C99.0818 41.5674 99.0818 41.5964 99.0818 41.6545C98.9075 41.5383 98.2684 41.4221 98.0361 41.4221C97.8327 41.4221 97.368 41.3059 97.1937 41.5674C97.1065 41.7126 96.9903 41.7417 96.787 41.7998C96.6127 41.8578 96.6127 42.1483 96.4094 42.0321C96.177 41.9159 95.8284 42.0031 95.7413 42.0612C95.6251 42.1483 95.5379 42.2355 95.5379 42.3807Z" fill="#171796"/>
<path fill-rule="evenodd" clip-rule="evenodd" d="M95.9155 42.7583C96.1189 43.0488 96.3803 43.165 96.6998 43.2231C97.2227 43.3102 98.036 43.3393 98.7041 42.7293C98.8784 42.584 98.9946 42.3807 99.0237 42.1773C99.0527 42.0031 98.8784 41.8869 98.7332 41.8288C98.5879 41.7997 97.6294 41.6835 97.5132 41.7416C97.397 41.7997 97.3679 41.8869 97.3679 42.0031C97.3679 42.1193 97.2808 42.0902 97.1646 42.0902C97.0484 42.0902 96.8451 42.1193 96.787 42.2645C96.7289 42.4097 96.5836 42.4097 96.5255 42.3516C96.3803 42.2645 95.6832 42.2935 95.9155 42.7583Z" fill="#171796"/>
<path fill-rule="evenodd" clip-rule="evenodd" d="M83.3961 41.248C84.4127 40.6961 85.4004 39.8537 86.2718 38.4885L86.417 38.2271C86.1846 38.3432 85.8651 38.2561 85.8651 38.2561C85.8361 38.2851 85.807 38.3432 85.778 38.3723C84.9356 39.5923 84.0351 40.3766 83.0765 40.8704L83.3961 41.248Z" fill="#171796"/>
<path fill-rule="evenodd" clip-rule="evenodd" d="M86.2718 40.2313C85.5747 40.8413 84.3547 41.1608 84.3547 41.1608C84.7904 40.7541 85.5747 39.9699 85.9233 39.6503C86.2428 39.3599 86.998 38.2851 87.1142 37.9365C87.2304 38.2851 87.9856 39.3308 88.3052 39.6503C88.6247 39.9408 89.438 40.7541 89.8737 41.1608C89.8737 41.1608 88.6537 40.8703 87.9566 40.2313L87.7823 40.6089C87.6371 40.8994 87.3756 41.3932 87.1142 41.5675C86.8528 41.3642 86.5914 40.8994 86.4461 40.6089L86.2718 40.2313Z" fill="#171796"/>
<path fill-rule="evenodd" clip-rule="evenodd" d="M90.8614 41.248C89.8447 40.6961 88.8571 39.8537 87.9856 38.4885L87.8404 38.2271C88.0728 38.3432 88.3923 38.2561 88.3923 38.2561C88.4213 38.2851 88.4504 38.3432 88.4794 38.3723C89.2928 39.5923 90.2223 40.3766 91.1518 40.8704L90.8614 41.248Z" fill="#171796"/>
<path fill-rule="evenodd" clip-rule="evenodd" d="M83.5413 14.8432C82.9313 14.9303 82.2051 14.9013 82.176 14.9013H82.1179V14.9594C82.147 15.2208 82.2632 15.3951 82.4375 15.5113L82.4955 15.5403V15.4532C82.5246 14.9884 83.5122 14.9884 83.5122 14.9884H83.5703V14.8432H83.5413ZM81.4498 14.2912C81.4498 14.2912 82.2341 14.5817 83.0475 14.5527C83.8317 14.5236 85.3132 14.4946 85.7779 14.2622C85.7779 14.2622 85.6908 14.5527 85.3132 14.727C85.3132 14.727 85.5165 14.727 85.7199 14.9013C85.7199 14.9013 85.6037 15.1336 85.2551 15.2789C85.2551 15.2789 85.8651 15.9179 86.5041 15.8598C86.5041 15.8598 86.2137 16.2374 85.5456 16.0922C84.8775 15.947 84.6741 15.5694 84.5579 15.4241C84.5579 15.4241 84.6451 15.7727 84.616 15.9179C84.616 15.9179 84.3256 15.8889 84.0932 15.6274C84.0932 15.6274 84.2675 15.9179 84.2965 16.1503C84.2965 16.1503 84.1222 16.1794 83.7736 15.976C83.7736 15.976 83.8317 16.1503 83.8608 16.3536C83.8608 16.3536 83.1055 16.1213 82.7279 15.7727C82.7279 15.7727 82.7279 16.0051 82.7279 16.1503C82.7279 16.1213 81.537 16.0051 81.4498 14.2912Z" fill="#171796"/>
<path fill-rule="evenodd" clip-rule="evenodd" d="M90.687 14.9015V14.9886H90.7451C90.7451 14.9886 91.7328 14.9886 91.7618 15.4534V15.5405L91.8199 15.5115C91.9942 15.3953 92.1104 15.221 92.1394 14.9596V14.9015H92.0813C92.0813 14.9015 91.3261 14.9305 90.7161 14.8434H90.658V14.9015H90.687ZM91.5294 16.1215C91.5585 15.9763 91.5294 15.7439 91.5294 15.7439C91.1518 16.0924 90.3966 16.3248 90.3966 16.3248C90.3966 16.1215 90.4837 15.9472 90.4837 15.9472C90.1642 16.1505 89.9609 16.1215 89.9609 16.1215C89.9899 15.8891 90.1642 15.5986 90.1642 15.5986C89.9318 15.8891 89.6413 15.8891 89.6413 15.8891C89.5832 15.7439 89.6994 15.3953 89.6994 15.3953C89.5832 15.5405 89.3799 15.9182 88.7118 16.0634C88.0437 16.2086 87.7532 15.831 87.7532 15.831C88.3923 15.8891 89.0023 15.2501 89.0023 15.2501C88.6537 15.1048 88.5375 14.8724 88.5375 14.8724C88.7409 14.6982 88.9442 14.6982 88.9442 14.6982C88.5666 14.5239 88.4794 14.2334 88.4794 14.2334C88.9442 14.4658 90.4256 14.4658 91.2099 14.5239C91.9942 14.5529 92.8075 14.2624 92.8075 14.2624C92.7204 16.0053 91.5294 16.1215 91.5294 16.1215Z" fill="#171796"/>
<path fill-rule="evenodd" clip-rule="evenodd" d="M86.0104 42.5545L86.7947 43.9488L86.6494 44.1812C86.4171 44.6169 86.1556 45.0816 86.0104 45.314C85.8942 45.1688 85.6037 44.7331 85.1971 44.1812L85.0518 43.9778C85.4294 43.455 85.8361 42.845 86.0104 42.5545ZM88.2471 42.5545C88.4213 42.8159 88.7409 43.2807 89.0604 43.7745L89.2056 43.9778C88.7409 44.6459 88.3633 45.1397 88.2471 45.314L87.4628 43.9197L88.2471 42.5545ZM92.0233 39.0687L92.488 39.3883C92.3428 39.5916 90.7742 41.8283 89.5542 43.484L89.409 43.2807L88.4504 41.8283L88.189 41.4216L87.2594 43.1064L87.1433 43.3388L86.0685 41.4216L84.7032 43.484L84.558 43.2807C83.367 41.6249 81.9147 39.5916 81.7694 39.3883L82.2342 39.0687L80.7818 38.5168L80.8108 40.0854L81.3047 39.7368L84.2094 43.8035L84.3547 44.0069L83.8609 44.7331L83.367 44.4135V45.9531L84.8194 45.3721L84.3256 45.0526C84.4128 44.9364 84.529 44.7331 84.6742 44.5007L84.8194 44.704L86.0394 46.3888L86.969 44.7621L87.1142 44.5297L88.1599 46.3888L89.5252 44.5007L89.6704 44.704C89.7575 44.8492 89.8447 44.9654 89.9028 45.0526L89.409 45.3721L90.8614 45.9531V44.4135L90.3676 44.7331L90.019 44.2102L89.8737 44.0069L92.9238 39.7078L93.4176 40.0564L93.4466 38.4878L92.0233 39.0687Z" fill="#171796"/>
<path fill-rule="evenodd" clip-rule="evenodd" d="M92.1975 24.2547C92.1103 24.6323 92.0522 25.1552 92.4008 25.3004C93.5627 25.678 94.8699 25.4166 95.3056 24.9228C95.4218 24.7776 95.4799 24.6033 95.4799 24.3999C95.4799 23.9061 95.2184 23.2961 94.928 22.7152L94.7246 22.2794C94.6375 22.1052 94.6084 21.9599 94.6084 21.8147C94.6084 21.3209 94.957 21.0304 95.1313 20.9142C96.758 19.8104 97.4551 18.968 97.8618 18.2128L97.9489 18.0675C98.588 17.0509 99.7789 16.6732 100.215 16.499C100.244 16.6151 100.244 16.7894 100.244 16.9637C100.244 17.3704 100.186 17.8642 99.9242 18.2709C99.7208 18.6194 99.4013 18.9971 99.0237 19.3747L98.8785 19.5199L99.2851 20.159L99.4885 20.0428C99.9532 19.7813 100.592 19.4909 101.086 19.3166C100.912 19.7233 100.621 20.2752 100.302 20.5656C100.011 20.8271 99.7499 21.0304 99.4013 21.0885L99.1689 21.1466L99.3432 21.9018L99.5756 21.8437L99.7499 21.7856C99.9532 21.6985 100.36 21.6985 100.708 21.8437C100.621 22.0471 100.36 22.3956 99.7789 22.5699L99.5175 22.628L99.5465 22.8314L99.6046 23.3542L99.837 23.3252C100.128 23.2961 100.389 23.3252 100.621 23.4123C101.028 23.5576 101.202 23.7028 101.318 23.8771C101.086 24.0223 100.65 24.2838 100.157 24.2838C100.011 24.2838 99.837 24.2837 99.6627 24.2547L99.4594 24.2257L99.3142 24.8357L99.5465 24.8937C99.9823 25.0099 100.389 25.2133 100.65 25.8523C100.476 25.9395 100.157 26.0266 99.7208 25.9395C99.4594 25.8814 99.198 25.7942 98.9656 25.7071L98.8204 25.649L98.2394 26.2009L98.7332 26.4333C98.9366 26.5495 99.1399 26.6366 99.2561 26.7528C99.1399 26.869 98.9075 27.0142 98.5299 26.9852C98.2975 26.9561 98.0651 26.898 97.8618 26.8109L97.6875 26.7528L97.3099 27.2176L97.7165 27.479C98.0651 27.7114 98.1232 27.9438 98.1232 28.118C98.1232 28.1471 98.1232 28.1761 98.1232 28.2052C97.7165 28.2342 97.368 28.089 97.0775 27.8276L96.9323 27.6823L96.4675 28.089L96.6127 28.2633C96.9323 28.6409 97.0775 28.8733 97.1065 29.0185C96.6999 29.0185 96.2932 28.8152 95.8284 28.4666C95.6832 28.3504 95.5961 28.2342 95.5089 28.118L95.4218 27.9438L94.8699 28.1471L94.928 28.3504C94.957 28.4957 94.9861 28.6409 94.9861 28.7862C94.9861 28.9895 94.957 29.2219 94.8699 29.4252C94.8118 29.5995 94.6665 29.8319 94.5503 29.9771C94.4342 29.8319 94.2889 29.6285 94.2018 29.3381C94.1727 29.2219 94.1437 29.0476 94.1437 28.8733V28.8442V28.6119H93.5627L93.5337 28.8442V28.8733C93.4756 29.3381 93.3594 29.89 92.8656 30.4419C92.6332 30.7323 92.3427 30.8195 92.1394 30.8485C92.1394 30.6452 92.1103 30.4128 92.0522 30.2676C91.878 29.7738 91.5003 28.9314 91.0937 28.1471C90.9484 27.8857 90.9194 27.6242 90.9194 27.4209C90.9194 27.1885 90.9775 27.0142 91.0065 26.9271C91.0356 26.8399 90.9484 26.7238 90.8613 26.6657C90.8032 26.6076 90.6579 26.5204 90.5708 26.5785L90.5127 26.6366C90.3675 26.8109 90.2222 27.0723 90.1932 27.2466C90.1641 27.4499 90.1932 27.6533 90.2222 27.8276C90.3384 28.06 90.5127 28.4085 90.5998 28.6409C90.687 28.9023 90.6579 29.309 90.5998 29.5414C90.5418 29.7738 90.1351 30.2966 90.077 30.3838C90.0189 30.4709 89.9898 30.5581 89.9608 30.6452C90.106 30.9357 90.106 31.1681 90.077 31.3423C90.0479 31.5166 89.9317 31.7781 89.8156 32.0104C89.6122 32.5043 89.6703 32.6204 89.6703 32.6204C89.7865 32.7076 89.9898 32.8528 90.0479 32.9109L90.077 32.94C90.077 32.94 90.8032 33.4047 91.0356 33.579C91.2099 33.7243 91.5003 34.0147 91.7037 34.2471L92.3427 34.77C92.517 34.799 92.6913 34.8571 92.8075 34.8862C93.1851 35.0024 93.4465 35.1767 93.7951 35.5833L93.8242 35.6124C93.8822 35.6995 93.9113 35.7286 93.9403 35.8157C93.9694 35.8447 94.0856 35.99 94.1437 36.1643C94.1727 36.2224 94.1437 36.3095 93.9984 36.3095C93.7661 36.3386 93.156 36.2514 93.0108 36.3386C92.8656 36.4548 92.8946 36.5709 92.8946 36.7162C92.8946 36.7162 92.6332 36.5419 92.4589 36.6C92.2265 36.6581 92.0813 36.7743 91.936 37.1519C91.878 37.0938 91.7908 37.0067 91.7908 36.8905C91.7618 36.8324 91.7037 36.7452 91.6746 36.6871C91.6746 37.0357 91.4713 37.21 91.3841 37.2681C91.268 37.3262 90.716 37.5586 90.3675 36.8324C90.3675 36.8324 90.9775 37.0357 91.1227 36.7452C91.297 36.4548 91.0065 36.019 90.8613 35.9028C90.6579 35.7576 90.2803 35.6124 90.0479 35.6705C89.7575 35.6705 89.5832 35.5543 89.5832 35.5543H89.5541C89.1475 35.5252 88.7117 35.1476 88.3922 34.6247L88.3632 35.4381C88.5375 35.5252 88.7989 35.7286 89.0313 36.1352C89.2637 36.5709 89.8156 36.9195 90.2513 37.1809C90.687 37.4424 90.8032 37.9362 90.8032 37.9362C90.5127 37.9362 90.2803 37.849 90.0479 37.7038C89.9898 37.7328 89.9318 37.7909 89.9027 37.8781C89.8737 37.9362 89.9899 38.1395 90.077 38.2848C90.5127 38.6624 90.5418 39.069 90.5418 39.069C89.9317 39.011 89.467 38.7495 89.1184 38.4009L88.3341 38.0233C88.0437 38.1105 87.7532 38.1395 87.2594 37.7038L87.2303 37.6748C87.1432 37.5876 87.056 37.5005 87.027 37.3843C86.9689 37.4714 86.9108 37.5876 86.8236 37.6748C86.3298 38.1395 86.0103 38.1105 85.7198 38.0233L84.9355 38.4009C84.587 38.7495 84.0932 39.011 83.5122 39.069C83.5122 39.069 83.5413 38.6624 83.977 38.2848C84.0641 38.1395 84.1803 37.9362 84.1512 37.8781C84.1222 37.7909 84.0932 37.7619 84.006 37.7038C83.7736 37.849 83.5413 37.9362 83.2508 37.9362C83.2508 37.9362 83.396 37.4714 83.8317 37.1809C84.2674 36.9195 84.7903 36.5419 85.0517 36.1352C85.2841 35.7286 85.5455 35.5252 85.7198 35.4381L85.6908 34.6247C85.3713 35.1476 84.9355 35.5252 84.5289 35.5543H84.4998C84.4998 35.5543 84.3255 35.6995 84.0351 35.6705C83.8027 35.6414 83.4251 35.7576 83.2217 35.9028C83.0474 36.019 82.786 36.4548 82.9603 36.7452C83.1346 37.0357 83.7446 36.8324 83.7446 36.8324C83.396 37.5586 82.8441 37.3262 82.7279 37.2681C82.6117 37.21 82.4374 37.0357 82.4374 36.6871C82.4084 36.7452 82.3503 36.8324 82.3212 36.8905C82.3212 37.0067 82.2341 37.0938 82.176 37.1519C82.0308 36.7452 81.8855 36.6581 81.6532 36.6C81.4789 36.5709 81.2174 36.7162 81.2174 36.7162C81.2174 36.5709 81.2755 36.4548 81.1303 36.3386C80.985 36.2514 80.4041 36.3676 80.1427 36.3095C80.0265 36.2805 79.9684 36.2224 79.9974 36.1643C80.0555 36.019 80.1717 35.8738 80.2008 35.8157C80.2298 35.7576 80.2879 35.6995 80.317 35.6124V35.5833C80.6655 35.1767 80.956 35.0024 81.3336 34.8862C81.4498 34.8571 81.5951 34.8281 81.7693 34.77L82.4084 34.2471C82.5827 34.0438 82.9022 33.7243 83.0765 33.579C83.3089 33.4047 84.0351 32.94 84.0351 32.94L84.0641 32.9109C84.1222 32.8528 84.3255 32.7076 84.4417 32.6204C84.4417 32.6204 84.4998 32.5333 84.2965 32.0104C84.2093 31.8071 84.0932 31.5166 84.0351 31.3423C84.006 31.1681 84.006 30.9357 84.1512 30.6452C84.1222 30.5581 84.0932 30.4709 84.0351 30.3838C83.977 30.3257 83.5703 29.7738 83.5122 29.5414C83.4251 29.28 83.4251 28.8733 83.5122 28.6409C83.5993 28.3795 83.7736 28.06 83.8898 27.8276C83.9479 27.6533 83.977 27.4499 83.9189 27.2466C83.8608 27.0142 83.6865 26.6947 83.5122 26.5785C83.4541 26.5495 83.3089 26.6076 83.2508 26.6657C83.1927 26.7238 83.0765 26.8399 83.1055 26.9271C83.1346 27.0142 83.1927 27.1885 83.1927 27.4209C83.1927 27.6242 83.1346 27.8857 83.0184 28.1471C82.5827 28.9314 82.2341 29.7738 82.0598 30.2676C82.0017 30.4128 81.9727 30.6452 81.9727 30.8485C81.7693 30.8195 81.5079 30.7323 81.2465 30.4419C80.7817 29.89 80.6365 29.3381 80.5784 28.8733V28.8442L80.5493 28.6119H79.9974V28.8442C79.9974 28.8733 79.9974 28.8733 79.9974 28.8733C79.9974 29.0476 79.9684 29.2219 79.9393 29.3381C79.8522 29.5995 79.736 29.8028 79.5908 29.9771C79.4746 29.8028 79.3293 29.5995 79.2712 29.4252C79.2131 29.1928 79.155 28.9895 79.155 28.7862C79.155 28.6409 79.1841 28.4957 79.2131 28.3504L79.2712 28.1471L78.7193 27.9438L78.6322 28.118C78.545 28.2633 78.4579 28.3504 78.3127 28.4666C77.8769 28.8152 77.4412 28.9895 77.0346 29.0185C77.0926 28.8733 77.2088 28.6119 77.5284 28.2633L77.6736 28.089L77.2088 27.6823L77.0636 27.8276C76.7441 28.118 76.3955 28.2342 76.0179 28.2052C76.0179 28.1761 76.0179 28.1471 76.0179 28.118C76.0179 27.9438 76.076 27.7114 76.4246 27.479L76.8312 27.2176L76.4536 26.7528L76.2793 26.8109C76.076 26.898 75.8436 26.9561 75.6112 26.9852C75.2336 27.0433 75.0012 26.869 74.885 26.7528C75.0012 26.6366 75.2046 26.5495 75.4079 26.4333L75.9017 26.2009L75.3207 25.649L75.1755 25.7071C74.9431 25.8233 74.7107 25.8814 74.4203 25.9395C73.9555 26.0266 73.665 25.9395 73.4907 25.8523C73.7522 25.2133 74.1879 25.0099 74.5945 24.8937L74.8269 24.8357L74.6817 24.2257L74.4784 24.2547C74.3041 24.2837 74.1588 24.2838 73.9845 24.2838C73.4907 24.2547 73.055 24.0223 72.8226 23.8771C72.9388 23.7318 73.1422 23.5576 73.5198 23.4123C73.7812 23.3252 74.0136 23.2961 74.3041 23.3252L74.5365 23.3542L74.6236 22.628L74.3622 22.5699C73.7522 22.4247 73.5198 22.0471 73.4326 21.8437C73.7812 21.6694 74.1879 21.6985 74.3912 21.7856L74.5655 21.8437L74.7979 21.9018L74.9722 21.1466L74.7398 21.0885C74.3912 21.0304 74.1588 20.8271 73.8393 20.5656C73.5198 20.2752 73.2293 19.7233 73.055 19.3166C73.5488 19.4618 74.1879 19.7813 74.6526 20.0428L74.856 20.159L75.2626 19.5199L75.1174 19.3747C74.7398 19.0261 74.4203 18.6485 74.2169 18.2709C73.9845 17.8351 73.8974 17.3413 73.8974 16.9637C73.8974 16.7894 73.9265 16.6151 73.9265 16.499C74.3622 16.6732 75.5531 17.0509 76.1922 18.0675L76.2793 18.2128C76.686 18.939 77.4122 19.8104 79.0098 20.9142C79.1841 21.0304 79.5327 21.3499 79.5327 21.8147C79.5327 21.9599 79.5036 22.1052 79.4165 22.2794L79.2131 22.7152C78.9517 23.3252 78.6612 23.9352 78.6612 24.3999C78.6612 24.6033 78.7193 24.7776 78.8355 24.9228C79.2712 25.4166 80.5784 25.678 81.7403 25.3004C82.1179 25.1552 82.0598 24.6614 81.9436 24.2547C81.9146 24.0804 81.7403 23.6737 81.6532 23.3252V23.2961C81.5079 22.8895 81.566 22.2504 81.8274 22.018C81.9436 21.8728 82.176 21.6695 82.5827 21.6404H82.6698C82.9313 21.6404 83.8317 21.4952 84.2674 20.2752V20.2171C84.2384 20.159 84.2384 20.1299 84.1803 20.0718L83.9189 19.6942C83.8317 19.5199 83.5122 18.939 83.396 18.4161C83.3379 18.0385 83.1636 17.8061 82.9893 17.6609C82.786 17.4866 82.3793 17.3704 82.3793 17.3704C82.4955 17.3413 82.757 17.2832 82.8441 17.2832H82.9022L83.1346 17.2251C82.8731 17.0218 82.5536 16.7023 82.3503 16.4409C82.4374 16.4699 82.6408 16.528 82.9022 16.6151C82.8732 16.528 82.8441 16.3247 82.8441 16.3247C82.9312 16.3828 83.1927 16.528 83.396 16.5861C83.396 16.5861 83.8027 16.7313 83.9479 16.7604C83.9479 16.7604 83.9189 16.528 83.9189 16.4118C84.0351 16.4409 84.1512 16.4699 84.2965 16.499H84.3836L84.5289 16.528C84.4708 16.3828 84.4417 16.2956 84.3836 16.2085C84.4417 16.2375 84.5289 16.2375 84.6451 16.2666C84.7032 16.1504 84.7032 16.0923 84.7032 16.0923C84.8194 16.2375 85.4584 16.3828 85.6036 16.4118C85.7489 16.4409 85.9813 16.4699 86.0975 16.5571C86.3879 16.7604 86.6784 17.1671 86.7946 17.6899V17.7771L86.8236 18.0094L87.027 19.2875L87.2303 18.0094L87.2594 17.7771V17.6899C87.3756 17.1961 87.637 16.7604 87.9275 16.5571C88.0727 16.4699 88.276 16.4118 88.4213 16.4118C88.5665 16.3828 89.2056 16.2375 89.3218 16.0923C89.3218 16.0923 89.3217 16.1504 89.3798 16.2666C89.467 16.2375 89.5832 16.2375 89.6413 16.2085C89.5832 16.2956 89.5541 16.3828 89.496 16.528L89.6413 16.499L89.7284 16.4699C89.8737 16.4409 89.9898 16.4118 90.106 16.3828C90.106 16.499 90.077 16.7313 90.077 16.7313C90.1932 16.7023 90.6289 16.5571 90.6289 16.5571C90.8322 16.4699 91.0937 16.3537 91.1808 16.2956C91.1808 16.2956 91.1518 16.499 91.1227 16.5861C91.3841 16.4699 91.5875 16.4118 91.6746 16.4118C91.4713 16.7023 91.1518 16.9928 90.8903 17.1961L91.1227 17.2542H91.1808C91.2679 17.2542 91.5294 17.3123 91.6456 17.3413C91.6456 17.3413 91.2389 17.4575 91.0356 17.6318C90.8613 17.7771 90.716 18.0094 90.6289 18.3871C90.5418 18.9099 90.2222 19.4909 90.1351 19.6652C90.0479 19.7813 89.9898 19.9266 89.9027 20.0428C89.8737 20.1009 89.8446 20.159 89.8156 20.188V20.2461C90.2513 21.4661 91.1518 21.6114 91.4132 21.6114H91.5003C91.878 21.6404 92.1394 21.8437 92.2556 21.989C92.5461 22.2214 92.5751 22.8604 92.4299 23.2671V23.2961C92.3427 23.6156 92.2265 23.9933 92.1684 24.1676L92.1975 24.2547Z" fill="#171796"/>
<path d="M55.7136 0H0V55.6264H55.7136V0Z" fill="#171796"/>
<path fill-rule="evenodd" clip-rule="evenodd" d="M7.0876 32.2724C7.52332 32.2724 7.8719 32.5048 8.13333 33.0277C8.39475 33.5505 8.53999 34.3638 8.53999 35.4967C8.53999 36.0777 8.45285 36.5424 8.27856 36.862C8.13333 37.1524 7.92999 37.3267 7.7557 37.3267C7.55237 37.3267 7.40713 37.2105 7.26189 36.9201C7.11665 36.6296 7.02951 36.2229 7.02951 35.7C7.02951 35.7 7.02951 32.4467 7.02951 32.2724C7.05856 32.2724 7.0876 32.2724 7.0876 32.2724ZM9.93428 32.3886C9.35333 31.1686 8.39475 30.5586 7.0876 30.5586H5.08331V42.1777H7.00046C7.00046 42.1777 7.00046 39.1277 7.00046 38.8082C7.37808 39.1277 7.78475 39.331 8.22046 39.331C8.85952 39.331 9.38238 38.9824 9.78905 38.3434C10.2538 37.5882 10.4862 36.4843 10.4862 35.061C10.4862 34.0443 10.3119 33.1438 9.93428 32.3886Z" fill="white"/>
<path fill-rule="evenodd" clip-rule="evenodd" d="M50.1364 29.9775L49.9911 30.1228C49.9911 30.1228 45.9825 34.3057 45.692 34.6252C45.692 34.2185 45.692 30.5295 45.692 30.5295H43.8039V42.1776H45.692C45.692 42.1776 45.692 37.4719 45.692 37.3847C45.7501 37.3266 48.1611 34.7704 48.4225 34.509C48.4516 34.9157 48.684 42.1776 48.684 42.1776H50.6011L50.1364 29.9775ZM41.0154 30.1228C41.0154 30.1228 37.0068 34.3057 36.7163 34.6252C36.7163 34.2185 36.7163 30.5295 36.7163 30.5295H34.8282V42.1776H36.7163C36.7163 42.1776 36.7163 37.4719 36.7163 37.3847C36.7744 37.3266 39.1854 34.7704 39.4468 34.509C39.4758 34.9157 39.7082 42.1776 39.7082 42.1776H41.6254L41.1606 29.9775L41.0154 30.1228ZM30.1225 39.3019C29.5125 38.5466 29.1929 37.588 29.1929 36.3971C29.1929 35.1771 29.4834 34.1895 30.0644 33.4923C30.7034 32.708 31.6329 32.3014 32.8529 32.3014H32.9401V30.268H32.8529C30.9648 30.268 29.4834 30.849 28.4958 32.0399C27.5953 33.0856 27.1305 34.5671 27.1305 36.4261C27.1305 38.1981 27.6244 39.6795 28.612 40.7833C29.6286 41.9452 31.081 42.5552 32.882 42.5552H32.9691V40.5219H32.882C31.7201 40.4928 30.7906 40.0862 30.1225 39.3019ZM16.1795 39.36C15.9181 40.1152 15.5695 40.5219 15.0757 40.5219C14.611 40.5219 14.2624 40.1152 14.001 39.36C13.7395 38.5466 13.5943 37.53 13.5943 36.31C13.5943 35.0609 13.7105 34.0442 13.9719 33.2599C14.2333 32.5047 14.5819 32.1271 15.0467 32.1271C15.5695 32.1271 15.9472 32.5047 16.2086 33.2599C16.441 33.9571 16.5572 34.9738 16.5572 36.2519C16.5572 37.53 16.441 38.5757 16.1795 39.36ZM17.6029 31.9237C16.9929 30.8199 16.1505 30.239 15.0757 30.239C14.0591 30.239 13.2457 30.8199 12.6648 31.9237C12.0838 33.0276 11.7933 34.4799 11.7933 36.2809C11.7933 38.14 12.0838 39.6214 12.6067 40.7252C13.1586 41.829 13.9719 42.41 15.0467 42.41C16.1214 42.41 16.9929 41.829 17.6029 40.6381C18.1838 39.5342 18.4743 38.0819 18.4743 36.2809C18.4743 34.4799 18.1838 33.0276 17.6029 31.9237ZM22.9186 39.3019C22.3086 38.5466 21.9891 37.588 21.9891 36.3971C21.9891 35.1771 22.2796 34.1895 22.8605 33.4923C23.4996 32.708 24.4291 32.3014 25.6491 32.3014H25.7362V30.268H25.6491C23.761 30.268 22.2796 30.849 21.2919 32.0399C20.3915 33.0856 19.9267 34.5671 19.9267 36.4261C19.9267 38.1981 20.4205 39.6795 21.4081 40.7833C22.4248 41.9452 23.8772 42.5552 25.6782 42.5552H25.7653V40.5219H25.6782C24.4872 40.4928 23.5577 40.0862 22.9186 39.3019Z" fill="white"/>
<path fill-rule="evenodd" clip-rule="evenodd" d="M5.11243 13.4785V25.1848H7.26196C7.26196 25.1848 7.26196 15.6861 7.26196 15.4247H9.93435C9.93435 15.6861 9.93435 25.1848 9.93435 25.1848H12.0839V13.4785H5.11243Z" fill="white"/>
<path fill-rule="evenodd" clip-rule="evenodd" d="M18.7067 23.4418C18.1838 23.4418 17.8062 23.0642 17.5448 22.309C17.2543 21.4956 17.1091 20.479 17.1091 19.288C17.1091 18.039 17.2543 17.0223 17.5448 16.2671C17.8062 15.5409 18.2129 15.1632 18.7358 15.1632C19.3167 15.1632 19.7234 15.5118 20.0138 16.2671C20.2753 16.9642 20.3915 17.9518 20.3915 19.259C20.3915 20.508 20.2462 21.5537 19.9558 22.338C19.6362 23.0642 19.2296 23.4418 18.7067 23.4418ZM21.5243 14.8728C20.8562 13.7399 19.8977 13.188 18.6777 13.188C17.5448 13.188 16.6153 13.7689 15.9762 14.9018C15.3372 16.0056 15.0176 17.4871 15.0176 19.288C15.0176 21.1471 15.3372 22.6575 15.9472 23.7323C16.5862 24.8652 17.4867 25.4461 18.7067 25.4461C19.9267 25.4461 20.8853 24.8361 21.5824 23.6742C22.2215 22.5704 22.541 21.089 22.541 19.288C22.541 17.429 22.1924 15.9766 21.5243 14.8728Z" fill="white"/>
<path fill-rule="evenodd" clip-rule="evenodd" d="M34.2763 13.4785V15.4247C34.2763 15.4247 35.8159 15.4247 36.0483 15.4247C36.0483 15.6861 36.0483 25.1847 36.0483 25.1847H38.1978C38.1978 25.1847 38.1978 15.6861 38.1978 15.4247C38.4302 15.4247 40.0278 15.4247 40.0278 15.4247V13.4785H34.2763ZM29.5416 17.5452C29.3092 17.5452 28.3797 17.5452 28.3797 17.5452C27.8858 17.5452 27.5373 17.429 27.3049 17.2257C27.1306 17.0804 27.0725 16.8771 27.0725 16.5866V13.4785H24.923V16.819C24.923 17.5742 25.2135 18.2423 25.8235 18.7652C26.4044 19.2881 27.1306 19.5495 27.973 19.5495C27.973 19.5495 29.3092 19.5495 29.5416 19.5495C29.5416 19.8109 29.5416 25.2138 29.5416 25.2138H31.6911V13.5076H29.5416C29.5416 13.4785 29.5416 17.2838 29.5416 17.5452Z" fill="white"/>
<path fill-rule="evenodd" clip-rule="evenodd" d="M44.8207 17.5161C44.8207 17.2838 44.8788 15.6281 44.8788 15.4247C45.0821 15.4247 45.6631 15.4247 45.6631 15.4247C46.215 15.4247 46.5926 15.599 46.825 15.9476C46.9993 16.2381 47.1445 16.79 47.2317 17.5452H44.8207V17.5161ZM49.265 16.6157C49.265 15.4828 48.9164 14.6404 48.2483 14.1176C47.6964 13.6819 46.9702 13.4785 46.0407 13.4785H42.8454L42.4388 25.1848H44.5883C44.5883 25.1848 44.7916 19.7238 44.7916 19.4624C45.024 19.4624 47.2607 19.4624 47.4931 19.4624C47.5221 19.6947 48.1031 25.1848 48.1031 25.1848H50.2817L49.265 16.6157Z" fill="white"/>
</svg>
