<svg width="20" height="19" viewBox="0 0 20 19" fill="none" xmlns="http://www.w3.org/2000/svg">
<path d="M10.4669 0.527162L13.2383 6.21391C13.2791 6.29754 13.3198 6.33935 13.4013 6.33935L19.5963 7.25927C19.7186 7.25927 19.8001 7.38471 19.8001 7.51015C19.8001 7.55197 19.7593 7.6356 19.7186 7.67741L15.2354 12.0679C15.2354 12.1097 15.1946 12.1934 15.1946 12.277L16.2543 18.5073C16.295 18.6328 16.2135 18.7582 16.0913 18.8C16.0505 18.8 15.969 18.8 15.9282 18.7582L10.3446 15.8312C10.2631 15.7894 10.1816 15.7894 10.1408 15.8312L4.55716 18.7582C4.43489 18.8 4.31262 18.7582 4.2311 18.6746C4.19035 18.6328 4.19035 18.591 4.19035 18.5073L5.25002 12.277C5.25002 12.1934 5.25002 12.1097 5.1685 12.0679L0.685286 7.67741C0.603773 7.59378 0.563016 7.42653 0.644529 7.3429C0.685286 7.30108 0.726042 7.25927 0.807555 7.25927L7.0433 6.33935C7.12482 6.33935 7.16557 6.29754 7.20633 6.21391L9.97778 0.527162C10.0185 0.401719 10.1816 0.359904 10.3038 0.443533C10.4261 0.443533 10.4669 0.485347 10.4669 0.527162Z" fill="#FEE17A"/>
</svg>
