<svg width="26" height="25" viewBox="0 0 26 25" fill="none" xmlns="http://www.w3.org/2000/svg">
<path d="M14.9827 14.8497C13.2961 14.1256 11.8811 12.8876 10.9392 11.3123C10.8964 11.2335 10.8794 11.1433 10.8907 11.0544C10.9019 10.9654 10.9408 10.8823 11.0018 10.8166L11.8105 9.93489C11.8667 9.87526 11.904 9.80042 11.9179 9.71971C11.9319 9.639 11.9217 9.55597 11.8888 9.48098L10.6157 7.0549C10.6157 7.0549 10.0523 6.19403 8.89923 6.9349C8.89923 6.9349 5.86793 9.30359 7.80358 12.5592C9.73922 15.8149 11.5601 16.9158 13.1984 17.714C14.6227 18.4079 17.7062 19.3314 19.5688 15.9453C19.5688 15.9453 20.2209 14.9018 19.5688 14.6358C19.2714 14.5158 17.6488 13.7123 16.9601 13.3784C16.873 13.3355 16.7739 13.3235 16.6791 13.3443C16.5843 13.3652 16.4994 13.4177 16.4383 13.4931L15.4679 14.7192C15.4116 14.79 15.3341 14.8409 15.2468 14.8644C15.1595 14.8879 15.0669 14.8827 14.9827 14.8497V14.8497Z" stroke="#141515" stroke-width="0.6"/>
<path d="M1 24.1471L3.08695 18.3036C1.68374 15.7642 1.24811 12.8023 1.86069 9.96637C2.47327 7.13042 4.09258 4.61244 6.41886 2.87856C8.74513 1.14468 11.6208 0.312335 14.5136 0.5356C17.4063 0.758866 20.1202 2.02263 22.1529 4.09293C24.1856 6.16324 25.3993 8.89987 25.5695 11.7962C25.7396 14.6926 24.8547 17.5525 23.0784 19.8466C21.3021 22.1407 18.7549 23.7135 15.9081 24.274C13.0614 24.8344 10.1081 24.3445 7.59477 22.8949L1 24.1471Z" stroke="#141515" stroke-width="0.6" stroke-linecap="round"/>
</svg>
