<svg width="30" height="21" viewBox="0 0 30 21" fill="none" xmlns="http://www.w3.org/2000/svg">
<path d="M11.983 14.9532V6.31589C11.9837 6.28037 11.9938 6.24567 12.0121 6.21525C12.0305 6.18483 12.0565 6.15976 12.0876 6.14256C12.1186 6.12535 12.1537 6.11661 12.1892 6.11722C12.2247 6.11782 12.2595 6.12774 12.2899 6.14599L19.0858 10.4646C19.1153 10.4821 19.1398 10.5069 19.1568 10.5367C19.1738 10.5665 19.1828 10.6002 19.1828 10.6345C19.1828 10.6688 19.1738 10.7026 19.1568 10.7324C19.1398 10.7622 19.1153 10.787 19.0858 10.8044L12.2899 15.1231C12.2595 15.1413 12.2247 15.1513 12.1892 15.1519C12.1537 15.1525 12.1186 15.1437 12.0876 15.1265C12.0565 15.1093 12.0305 15.0843 12.0121 15.0538C11.9938 15.0234 11.9837 14.9887 11.983 14.9532V14.9532Z" stroke="#FEE17A" stroke-width="0.6"/>
<path d="M24.0346 1H5.96536C3.22307 1 1 3.22307 1 5.96536V15.3042C1 18.0465 3.22307 20.2695 5.96536 20.2695H24.0346C26.7769 20.2695 29 18.0465 29 15.3042V5.96536C29 3.22307 26.7769 1 24.0346 1Z" stroke="#FEE17A" stroke-width="0.6"/>
</svg>
